<svg width="90" height="80" viewBox="0 0 90 80" fill="none" xmlns="http://www.w3.org/2000/svg">
<path opacity="0.5" d="M90 72.7395C90 76.7242 70.8687 79.9527 47.265 79.9527C23.6638 79.9527 4.53003 76.723 4.53003 72.7395C4.53003 68.7583 23.6638 65.5275 47.265 65.5275C70.8687 65.5275 90 68.7571 90 72.7395Z" fill="#BABCBE"/>
<path d="M10.8308 20.0326L16.4615 22.875C13.2905 27.5241 11.3021 33.0251 10.8247 38.9399L5.19403 36.0974C5.67144 30.1826 7.65859 24.6817 10.8308 20.0326Z" fill="#A17321"/>
<path d="M16.4736 21.7485L22.1043 24.5909C20.0905 24.0912 18.2075 23.52 16.4603 22.875L10.8296 20.0326C12.5793 20.6776 14.4598 21.2487 16.4736 21.7485Z" fill="#694410"/>
<path d="M23.1512 9.16382L28.7831 12.0075C25.0705 13.9049 21.7554 16.498 19.0024 19.6261L13.3705 16.7836C16.1234 13.6568 19.4398 11.0612 23.1512 9.16382Z" fill="#A17321"/>
<path d="M13.7267 39.9333L19.3575 42.7734H10.7412L5.10922 39.9333H13.7267Z" fill="#694410"/>
<path d="M32.1783 6.32861L37.809 9.17228C33.5318 11.2778 29.8131 15.7683 27.1777 21.7086L21.547 18.8649C24.1824 12.9259 27.901 8.43413 32.1783 6.32861Z" fill="#A17321"/>
<path d="M20.1014 22.552L25.7309 25.3932C24.3714 29.4736 23.4917 34.073 23.2179 38.9411L17.5859 36.0987C17.861 31.2294 18.7407 26.6299 20.1014 22.552Z" fill="#A17321"/>
<path d="M5.10922 39.9333L10.7399 42.7746C10.9387 48.4353 12.5732 53.7051 15.3165 58.2078L9.68455 55.3653C6.94372 50.8615 5.30915 45.5916 5.10922 39.9333Z" fill="#A17321"/>
<path d="M27.9992 23.6592L33.6299 26.5029C30.8539 26.2475 28.2258 25.8688 25.7297 25.3932L20.1002 22.552C22.5963 23.0276 25.2257 23.4051 27.9992 23.6592Z" fill="#694410"/>
<path d="M38.5809 5.67156L44.2128 8.5128C43.9014 8.50312 43.6021 8.46561 43.2907 8.46561C42.9793 8.46561 42.6788 8.50191 42.3662 8.5128L36.7343 5.67156C37.0469 5.66067 37.3486 5.62195 37.6612 5.62195C37.9702 5.62316 38.2707 5.66067 38.5809 5.67156Z" fill="#694410"/>
<path d="M36.7342 5.67163L42.3662 8.51287C41.0357 10.1936 39.2025 15.0375 37.9023 22.9599L32.2716 20.1174C33.573 12.1951 35.4062 7.3512 36.7342 5.67163Z" fill="#A17321"/>
<path d="M16.739 57.2639L22.3697 60.1051C20.6709 60.5214 19.0412 60.9824 17.5678 61.4931L11.9383 58.6506C13.4117 58.14 15.0402 57.6778 16.739 57.2639Z" fill="#694410"/>
<path d="M17.5036 39.9333L23.1343 42.7746C23.19 47.3631 23.8007 51.6964 24.8682 55.5916L19.2363 52.7479C18.17 48.854 17.5593 44.5207 17.5036 39.9333Z" fill="#A17321"/>
<path d="M26.9244 39.9333L32.5551 42.7734H23.1343L17.5036 39.9333H26.9244Z" fill="#694410"/>
<path d="M31.7215 23.9277L37.3522 26.7702C36.9027 30.3362 36.5731 34.4008 36.4265 38.941L30.7958 36.0986C30.9424 31.5572 31.2707 27.4938 31.7215 23.9277Z" fill="#A17321"/>
<mask id="mask0_124_396" style="mask-type:luminance" maskUnits="userSpaceOnUse" x="31" y="23" width="18" height="4">
<path d="M42.8084 23.9277L48.4392 26.7702C46.6265 26.8791 44.7786 26.9408 42.886 26.9408C40.9909 26.9408 39.1588 26.8803 37.3522 26.7702L31.7215 23.9277C33.5281 24.0379 35.3602 24.0984 37.2565 24.0984C39.1504 24.0984 40.997 24.0379 42.8084 23.9277Z" fill="white"/>
</mask>
<g mask="url(#mask0_124_396)">
<path d="M42.8084 23.9277L48.4392 26.7702C46.6265 26.8791 44.7786 26.9408 42.886 26.9408C40.9909 26.9408 39.1588 26.8803 37.3522 26.7702L31.7215 23.9277C33.5281 24.0379 35.3602 24.0984 37.2565 24.0984C39.1504 24.0984 40.997 24.0379 42.8084 23.9277Z" fill="#694410"/>
</g>
<mask id="mask1_124_396" style="mask-type:luminance" maskUnits="userSpaceOnUse" x="20" y="55" width="14" height="5">
<path d="M27.6647 55.4247L33.2942 58.2683C30.7364 58.5237 28.3069 58.8637 26.0447 59.2908L20.414 56.4472C22.675 56.0212 25.1045 55.68 27.6647 55.4247Z" fill="white"/>
</mask>
<g mask="url(#mask1_124_396)">
<path d="M27.6647 55.4247L33.2942 58.2683C30.7364 58.5237 28.3069 58.8637 26.0447 59.2908L20.414 56.4472C22.675 56.0212 25.1045 55.68 27.6647 55.4247Z" fill="#694410"/>
</g>
<path d="M11.9395 58.6506L17.569 61.4931C20.265 64.8873 23.6553 67.6874 27.5194 69.7094L21.8887 66.867C18.0234 64.8462 14.6331 62.0449 11.9395 58.6506Z" fill="#A17321"/>
<path d="M43.1102 6.32861L48.7421 9.17228C50.2228 12.6633 51.1958 17.5205 51.7883 22.6814L46.1588 19.8378C45.5651 14.6781 44.5908 9.82207 43.1102 6.32861Z" fill="#A17321"/>
<path d="M30.7122 39.9333L36.3429 42.7746C36.2993 47.0001 36.4313 50.7961 36.6809 54.1674L31.0502 51.3237C30.8006 47.9537 30.6673 44.1565 30.7122 39.9333Z" fill="#A17321"/>
<path d="M43.1186 39.9333L48.7493 42.7734H36.3429L30.7122 39.9333H43.1186Z" fill="#694410"/>
<path d="M46.5308 23.6592L52.1615 26.5028C52.5201 30.8942 52.6389 35.2516 52.6195 38.9399L46.99 36.0975C47.0106 32.4092 46.8906 28.0529 46.5308 23.6592Z" fill="#A17321"/>
<mask id="mask2_124_396" style="mask-type:luminance" maskUnits="userSpaceOnUse" x="46" y="22" width="15" height="5">
<path d="M54.477 22.552L60.1089 25.3932C57.6044 25.8688 54.9484 26.2475 52.1627 26.5029L46.532 23.6592C49.3177 23.4051 51.9737 23.0276 54.477 22.552Z" fill="white"/>
</mask>
<g mask="url(#mask2_124_396)">
<path d="M54.477 22.552L60.1089 25.3932C57.6044 25.8688 54.9484 26.2475 52.1627 26.5029L46.532 23.6592C49.3177 23.4051 51.9737 23.0276 54.477 22.552Z" fill="#694410"/>
</g>
<path d="M52.0137 9.16382L57.6444 12.0075C59.5807 14.5135 61.2273 17.5205 62.5408 20.9148L56.9125 18.0723C55.5954 14.6781 53.9499 11.6711 52.0137 9.16382Z" fill="#A17321"/>
<path d="M20.414 56.4471L26.0447 59.2908C28.4111 65.6073 32.0717 70.3544 36.4216 72.5446L30.7921 69.701C26.4409 67.5096 22.7804 62.7649 20.414 56.4471Z" fill="#A17321"/>
<mask id="mask3_124_396" style="mask-type:luminance" maskUnits="userSpaceOnUse" x="31" y="54" width="17" height="4">
<path d="M41.7652 55.1463L47.3971 57.9875C45.7092 57.904 43.9959 57.8423 42.2098 57.8423C40.4372 57.8423 38.7081 57.904 37.0275 57.9875L31.3968 55.1463C33.0774 55.0604 34.8052 54.9987 36.5791 54.9987C38.3652 54.9987 40.0773 55.0604 41.7652 55.1463Z" fill="white"/>
</mask>
<g mask="url(#mask3_124_396)">
<path d="M41.7652 55.1463L47.3971 57.9875C45.7092 57.904 43.9959 57.8423 42.2098 57.8423C40.4372 57.8423 38.7081 57.904 37.0275 57.9875L31.3968 55.1463C33.0774 55.0604 34.8052 54.9987 36.5791 54.9987C38.3652 54.9987 40.0773 55.0604 41.7652 55.1463Z" fill="#694410"/>
</g>
<path d="M31.3968 55.1464L37.0275 57.9876C37.9714 66.3758 39.6568 71.4726 40.9497 73.203L35.3202 70.3593C34.0285 68.6325 32.3419 63.5333 31.3968 55.1464Z" fill="#A17321"/>
<path d="M46.9051 39.9333L52.537 42.7746C52.4013 46.2438 52.119 50.3085 51.6222 54.4469L45.9915 51.6032C46.4895 47.466 46.7694 43.4002 46.9051 39.9333Z" fill="#A17321"/>
<path d="M63.8591 20.0326L69.4886 22.875C67.7244 23.52 65.8075 24.0912 63.7694 24.5909L58.1375 21.7485C60.1744 21.2487 62.0949 20.6776 63.8591 20.0326Z" fill="#694410"/>
<path d="M56.3151 39.9333L61.9446 42.7734H52.5371L46.9052 39.9333H56.3151Z" fill="#694410"/>
<path d="M45.4875 55.4247L51.1182 58.2683C50.293 63.7088 49.0632 68.8818 47.3547 72.5447L41.7228 69.701C43.4325 66.0382 44.6623 60.8651 45.4875 55.4247Z" fill="#A17321"/>
<path d="M58.1387 21.7485L63.7706 24.591C65.0296 28.9605 65.7518 33.8044 65.8063 38.94L60.1756 36.0975C60.1186 30.9632 59.3977 26.1181 58.1387 21.7485Z" fill="#A17321"/>
<mask id="mask4_124_396" style="mask-type:luminance" maskUnits="userSpaceOnUse" x="45" y="55" width="14" height="5">
<path d="M52.6946 56.4472L58.3241 59.2908C56.0691 58.8637 53.6664 58.5237 51.1182 58.2683L45.4875 55.4247C48.0332 55.68 50.4372 56.0212 52.6946 56.4472Z" fill="white"/>
</mask>
<g mask="url(#mask4_124_396)">
<path d="M52.6946 56.4472L58.3241 59.2908C56.0691 58.8637 53.6664 58.5237 51.1182 58.2683L45.4875 55.4247C48.0332 55.68 50.4372 56.0212 52.6946 56.4472Z" fill="#694410"/>
</g>
<path d="M60.0895 39.9333L65.7214 42.7746C65.4597 47.6306 64.6152 52.2192 63.2908 56.4072L57.6589 53.5647C58.9845 49.3755 59.8278 44.7893 60.0895 39.9333Z" fill="#A17321"/>
<path d="M56.3175 57.2639L61.9494 60.1051C60.4421 63.768 58.564 67.0316 56.3817 69.7094L50.7498 66.867C52.9309 64.1879 54.8138 60.9268 56.3175 57.2639Z" fill="#A17321"/>
<path d="M68.7216 39.9333L74.3511 42.7734H65.7227L60.0895 39.9333H68.7216Z" fill="#694410"/>
<mask id="mask5_124_396" style="mask-type:luminance" maskUnits="userSpaceOnUse" x="56" y="57" width="11" height="5">
<path d="M61.0698 58.6494L66.7005 61.4931C65.2392 60.9824 63.6446 60.5178 61.9495 60.1051L56.3176 57.2639C58.0115 57.6778 59.6085 58.1388 61.0698 58.6494Z" fill="white"/>
</mask>
<g mask="url(#mask5_124_396)">
<path d="M61.0698 58.6494L66.7005 61.4931C65.2392 60.9824 63.6446 60.5178 61.9495 60.1051L56.3176 57.2639C58.0115 57.6778 59.6085 58.1388 61.0698 58.6494Z" fill="#694410"/>
</g>
<path d="M53.939 4.33923L59.5673 7.18047C71.6793 13.2949 79.8473 26.0902 79.5225 40.853C79.0694 61.5451 62.1251 78.3626 41.7603 78.3626C35.9333 78.3626 30.448 76.9856 25.5952 74.5364C25.3153 74.3936 25.033 74.252 24.7507 74.1092C23.1561 73.3033 21.5615 72.4986 19.9657 71.6927C24.8185 74.1419 30.305 75.5202 36.1296 75.5202C56.4956 75.5202 73.4399 58.7015 73.8918 38.0105C74.2153 23.2477 66.0474 10.4501 53.939 4.33923Z" fill="#95601D"/>
<path d="M37.7727 0.511841C58.1375 0.510631 74.3462 17.3318 73.893 38.0106C73.4411 58.7015 56.4969 75.5202 36.1308 75.5202C15.7672 75.5202 -0.442733 58.7015 0.00922609 38.0106C0.462397 17.3318 17.4066 0.511841 37.7727 0.511841ZM63.8591 20.0326C62.0948 20.6764 60.1743 21.2488 58.1375 21.7485C59.3964 26.1181 60.1174 30.9619 60.1743 36.0987H68.8052C68.5871 30.1827 66.8253 24.6817 63.8591 20.0326ZM10.8308 20.0326C7.6586 24.6817 5.67145 30.1827 5.19404 36.0987H13.8128C14.0914 30.9619 15.0244 26.1181 16.4736 21.7485C14.4598 21.2488 12.5793 20.6776 10.8308 20.0326ZM63.4568 55.3654C66.3963 50.8615 68.2623 45.5892 68.7228 39.9334H60.0907C59.829 44.7894 58.9857 49.3755 57.6601 53.5648C59.7321 54.0972 61.6865 54.695 63.4568 55.3654ZM9.68455 55.3654C11.4972 54.695 13.4662 54.0972 15.5612 53.5636C14.4307 49.3755 13.7776 44.7894 13.7267 39.9322H5.10922C5.30914 45.5917 6.94371 50.8615 9.68455 55.3654ZM37.1656 70.3593C38.5457 68.6325 40.4541 63.5333 41.7652 55.1464C40.0773 55.0604 38.3652 54.9987 36.5791 54.9987C34.8052 54.9987 33.0774 55.0604 31.3968 55.1464C32.3419 63.5333 34.0285 68.6325 35.3202 70.3593C35.6304 70.3714 35.9297 70.4101 36.2423 70.4101C36.5525 70.4089 36.8554 70.3714 37.1656 70.3593ZM41.7228 69.701C46.1697 67.4975 50.0374 62.7649 52.6946 56.4472C50.4384 56.0212 48.0344 55.68 45.4875 55.4247C44.6623 60.8651 43.4325 66.0382 41.7228 69.701ZM20.414 56.4472C22.7805 62.7649 26.441 67.5096 30.7921 69.701C29.2436 66.0382 28.2524 60.8651 27.6648 55.4247C25.1045 55.68 22.675 56.0212 20.414 56.4472ZM30.7958 36.0987H43.2035C43.241 31.5573 43.1017 27.4939 42.8096 23.9266C40.997 24.0367 39.1503 24.0973 37.2577 24.0973C35.3614 24.0973 33.5293 24.0367 31.7227 23.9266C31.2708 27.4939 30.9424 31.5573 30.7958 36.0987ZM36.7342 5.67156C35.405 7.35114 33.573 12.195 32.2716 20.1173C33.9244 20.2033 35.6001 20.2626 37.3401 20.2626C39.0777 20.2626 40.768 20.2033 42.4134 20.1064C41.461 12.195 39.841 7.35235 38.5809 5.67156C38.2719 5.66067 37.9714 5.62195 37.6612 5.62195C37.3486 5.62316 37.0481 5.66067 36.7342 5.67156ZM43.1186 39.9334H30.7109C30.6673 44.1565 30.8006 47.9537 31.049 51.3237C32.8859 51.2269 34.7459 51.1543 36.6628 51.1543C38.5796 51.1543 40.4493 51.2269 42.2814 51.3237C42.6788 47.9537 42.9781 44.1565 43.1186 39.9334ZM53.2047 18.8649C50.8298 12.9259 47.2941 8.44625 43.1101 6.32863C44.5908 9.82209 45.565 14.6781 46.1587 19.8378C48.633 19.6067 50.9897 19.2763 53.2047 18.8649ZM32.1783 6.32863C27.901 8.43536 24.1824 12.9259 21.547 18.8649C23.7329 19.2776 26.0738 19.6079 28.5505 19.8378C29.372 14.6781 30.5546 9.82209 32.1783 6.32863ZM27.0093 36.0987C27.1377 32.4092 27.4479 28.053 27.9992 23.6592C25.2244 23.4039 22.5951 23.0276 20.1014 22.552C18.7395 26.6299 17.8598 31.2294 17.586 36.0987H27.0093ZM46.9912 36.0987H56.3999C56.3515 31.2294 55.6705 26.6299 54.4782 22.552C51.9748 23.0276 49.3188 23.4051 46.5319 23.6592C46.8906 28.053 47.0106 32.4092 46.9912 36.0987ZM56.3151 39.9334H46.9051C46.7694 43.4002 46.4883 47.4673 45.9903 51.6033C48.8257 51.8586 51.4999 52.2628 54.0202 52.748C55.2682 48.854 56.0582 44.5208 56.3151 39.9334ZM27.3158 51.6033C27.0129 47.4673 26.8966 43.4002 26.9244 39.9334H17.5036C17.5593 44.5208 18.1712 48.8552 19.2363 52.748C21.7772 52.2494 24.4804 51.8586 27.3158 51.6033ZM50.751 66.867C54.7036 64.8329 58.2162 62.0449 61.0697 58.6495C59.6085 58.1376 58.0115 57.6766 56.3175 57.264C54.8138 60.9268 52.9309 64.188 50.751 66.867ZM11.9395 58.6507C14.6343 62.0449 18.0246 64.845 21.8887 66.867C19.8239 64.1867 18.0864 60.9268 16.7402 57.264C15.0402 57.6778 13.4117 58.1401 11.9395 58.6507ZM23.1512 9.16382C19.4398 11.0612 16.1247 13.6556 13.3705 16.7836C14.7652 17.258 16.2882 17.6839 17.8622 18.0723C19.3259 14.6781 21.1071 11.6711 23.1512 9.16382ZM61.4599 16.7836C58.8439 13.6568 55.6535 11.0612 52.0136 9.16382C53.9499 11.6711 55.5954 14.6769 56.9137 18.0723C58.5155 17.6718 60.0483 17.258 61.4599 16.7836Z" fill="#F2D031"/>
</svg>
