<svg width="134" height="114" viewBox="0 0 134 114" fill="none" xmlns="http://www.w3.org/2000/svg">
<path d="M40.2044 96.1056L0.000854492 70.8532L23.9326 55.839L64.1797 81.0816L40.2044 96.1056Z" fill="#DBDBDD"/>
<path opacity="0.5" d="M19.9446 82.8171L29.1983 88.6309L51.0091 75.2197L41.8091 69.474L19.9446 82.8171Z" fill="#898989"/>
<path opacity="0.5" d="M5.19385 72.5833L14.4475 78.3969L36.2585 64.9857L27.0583 59.2402L5.19385 72.5833Z" fill="#898989"/>
<path d="M96.3823 60.9576L110.946 51.857L96.3633 43.2225L96.3823 60.9576Z" fill="#DBDBDD"/>
<path d="M107.664 44.255L105.512 42.7874V52.5832L107.664 53.9295V44.255Z" fill="#94441D"/>
<path d="M107.662 44.255L109.814 42.7874V52.5843L107.662 53.9295V44.255Z" fill="#7E3B16"/>
<path d="M101.191 43.4151L109.095 48.3585L109.098 31.1239L101.156 26.1307L101.191 43.4151Z" fill="#2D8A16"/>
<path d="M107.211 33.933L107.662 34.2146L107.662 33.2329L107.209 32.9485L107.211 33.933Z" fill="#41AB24"/>
<path d="M105.711 29.9631L106.162 30.2447L106.162 29.2631L105.709 28.9788L105.711 29.9631Z" fill="#41AB24"/>
<path d="M102.696 30.4915L103.146 30.7731L103.147 29.7913L102.694 29.507L102.696 30.4915Z" fill="#41AB24"/>
<path d="M107.999 32.3621L108.449 32.6437L108.45 31.6619L107.997 31.3776L107.999 32.3621Z" fill="#277810"/>
<path d="M104.199 31.8825L104.489 32.0637L104.489 31.4321L104.198 31.249L104.199 31.8825Z" fill="#277810"/>
<path d="M102.062 28.7964L102.352 28.9776V28.3458L102.061 28.1627L102.062 28.7964Z" fill="#277810"/>
<path d="M108.225 39.1924L108.515 39.3736L108.515 38.7418L108.223 38.5587L108.225 39.1924Z" fill="#277810"/>
<path d="M106.113 39.337L106.403 39.5183L106.403 38.8865L106.112 38.7034L106.113 39.337Z" fill="#277810"/>
<path d="M107.065 42.6052L107.355 42.7862V42.1547L107.064 41.9716L107.065 42.6052Z" fill="#277810"/>
<path d="M105.68 44.4072L105.935 44.5665V44.011L105.679 43.8499L105.68 44.4072Z" fill="#277810"/>
<path d="M107.968 46.6784L108.223 46.8379L108.223 46.2824L107.967 46.1212L107.968 46.6784Z" fill="#41AB24"/>
<path d="M105.68 35.4193L105.935 35.5786V35.0231L105.679 34.8622L105.68 35.4193Z" fill="#41AB24"/>
<path d="M101.156 26.1307L106.227 22.9707L114.156 27.9206L114.17 45.1827L109.095 48.3585L109.098 31.1239L101.156 26.1307Z" fill="#41AB24"/>
<path d="M109.098 31.1238L114.156 27.9205L114.17 45.1827L109.095 48.3585L109.098 31.1238Z" fill="#277810"/>
<path d="M98.5156 49.9161L96.3632 48.4487V58.2445L98.5156 59.5906V49.9161Z" fill="#94441D"/>
<path d="M98.5134 49.9161L100.666 48.4487V58.2457L98.5134 59.5906V49.9161Z" fill="#7E3B16"/>
<path d="M92.0423 49.0764L99.9464 54.0198L99.9492 36.7852L92.0072 31.792L92.0423 49.0764Z" fill="#2D8A16"/>
<path d="M92.0072 31.7919L97.0785 28.6318L105.008 33.5817L105.022 50.8439L99.9464 54.0196L99.9492 36.785L92.0072 31.7919Z" fill="#41AB24"/>
<path d="M99.9492 36.7851L105.008 33.5818L105.022 50.8439L99.9464 54.0197L99.9492 36.7851Z" fill="#277810"/>
<path d="M133.93 65.9234L87.1639 95.1481L64.1797 81.0816L110.946 51.8569L133.93 65.9234Z" fill="#DBDBDD"/>
<path d="M97.6347 37.3212L98.0851 37.6026L98.0853 36.621L97.6328 36.3367L97.6347 37.3212Z" fill="#277810"/>
<path d="M97.861 46.5555L98.3116 46.837V45.8553L97.8591 45.5709L97.861 46.5555Z" fill="#277810"/>
<path d="M98.4786 49.9507L98.9289 50.2321L98.9291 49.2506L98.4767 48.9662L98.4786 49.9507Z" fill="#277810"/>
<path d="M96.3844 51.2171L96.8348 51.4987L96.835 50.5171L96.3823 50.2325L96.3844 51.2171Z" fill="#277810"/>
<path d="M98.9279 37.8018L99.183 37.961V37.4055L98.9266 37.2446L98.9279 37.8018Z" fill="#41AB24"/>
<path d="M99.23 47.3075L99.4852 47.467L99.4854 46.9113L99.229 46.7504L99.23 47.3075Z" fill="#41AB24"/>
<path d="M96.9135 48.5568L97.1686 48.7161L97.1688 48.1605L96.9124 47.9996L96.9135 48.5568Z" fill="#41AB24"/>
<path d="M98.4476 52.0553L98.7027 52.2148L98.7029 51.6593L98.4465 51.4982L98.4476 52.0553Z" fill="#41AB24"/>
<path opacity="0.5" d="M97.8591 65.6065L113.505 75.4359L126.563 67.2367L111.009 57.5226L97.8591 65.6065Z" fill="#898989"/>
<path d="M125.409 55.4729L119.398 51.6948L115.397 64.2175L121.408 67.9959L125.409 55.4729Z" stroke="#7A5C41" stroke-width="3.5701" stroke-miterlimit="10" stroke-linejoin="round"/>
<path d="M123.435 61.7371L117.38 57.9532L119.406 61.713L125.417 65.4914L123.435 61.7371Z" stroke="#7A5C41" stroke-width="3.5701" stroke-miterlimit="10" stroke-linejoin="round"/>
<path d="M118.478 57.2825L113.393 60.4608L119.808 64.5241L125.015 61.4066L118.478 57.2825Z" fill="#FFA227"/>
<path d="M113.393 61.0547V60.4607L119.808 64.524V65.111L113.393 61.0547Z" fill="#E47800"/>
<path d="M125.015 62.0004V61.4066L119.808 64.524V65.1111L125.015 62.0004Z" fill="#E47800"/>
<path d="M121.408 67.9958L125.409 55.4729" stroke="#7A5C41" stroke-width="3.5701" stroke-miterlimit="10" stroke-linejoin="round"/>
<path d="M124.816 58.596L118.093 54.5082L118.784 52.3667L125.507 56.4543L124.816 58.596Z" fill="#E89615"/>
<path d="M99.3648 55.329L105.376 51.5509L109.378 64.0736L103.366 67.8519L99.3648 55.329Z" stroke="#7A5C41" stroke-width="3.5701" stroke-miterlimit="10" stroke-linejoin="round"/>
<path d="M101.339 61.5932L107.394 57.8093L105.369 61.5691L99.3571 65.3474L101.339 61.5932Z" stroke="#7A5C41" stroke-width="3.5701" stroke-miterlimit="10" stroke-linejoin="round"/>
<path d="M106.296 57.1385L111.382 60.3169L104.966 64.3801L99.7593 61.2627L106.296 57.1385Z" fill="#FFA227"/>
<path d="M111.382 60.9109V60.3169L104.966 64.3802V64.9672L111.382 60.9109Z" fill="#E47800"/>
<path d="M99.7593 61.8565V61.2627L104.966 64.3801V64.9672L99.7593 61.8565Z" fill="#E47800"/>
<path d="M103.366 67.8519L99.3648 55.329" stroke="#7A5C41" stroke-width="3.5701" stroke-miterlimit="10" stroke-linejoin="round"/>
<path d="M99.9584 58.452L106.682 54.3641L105.99 52.2227L99.2668 56.3102L99.9584 58.452Z" fill="#E89615"/>
<path d="M64.1797 45.864L23.9264 20.7063V55.9239L64.1797 81.0816V45.864Z" fill="#E47800"/>
<path d="M96.3823 60.9576L64.1797 81.0858V45.864L96.3823 25.7356V60.9576Z" fill="#E89615"/>
<path d="M96.3823 25.7356L56.1289 0.430664L23.9264 20.7063L64.1797 45.864L96.3823 25.7356Z" fill="#FFBF4D"/>
<path d="M65.2115 42.4206L32.16 21.8383L56.1869 6.81921L89.1805 27.4395L65.2115 42.4206Z" fill="#E88F0B"/>
<path d="M59.3073 22.6073L48.7592 16.0386V14.6992L66.9567 16.487V17.8264L59.3073 22.6073Z" fill="#E07200"/>
<path d="M59.3073 22.6073L48.7592 16.0386V14.6992L59.3073 21.2679V22.6073Z" fill="#BC5900"/>
<path d="M59.3073 21.2679L48.7592 14.6993L56.4272 9.90613L66.9567 16.487L59.3073 21.2679Z" fill="#EAA33F"/>
<path d="M56.186 3.69812L31.9772 18.829L34.6156 20.3038L56.186 6.81925V3.69812Z" fill="#E07200"/>
<path d="M56.186 3.69812V6.68568L56.1869 6.81925L89.1804 27.4396L91.719 25.8539L56.186 3.69812Z" fill="#BC5900"/>
<path d="M25.7351 54.4637L25.6653 28.8187L62.6762 52.1137V77.4912L25.7351 54.4637Z" fill="white"/>
<path d="M61.2651 52.8936L61.2494 74.7704L27.0004 53.2774V31.564L61.2651 52.8936Z" fill="#8FCAEA"/>
<path d="M60.2456 28.1784L32.16 10.5707V25.6606L60.2456 43.2683V28.1784Z" fill="#D9CEB1"/>
<path d="M59.1531 28.8433L33.1976 12.2517V25.0548L59.1531 41.6463V28.8433Z" fill="#E2F0DB"/>
<path d="M60.2456 28.1784L32.16 10.5707L33.6507 9.63916L61.7363 27.2469L60.2456 28.1784Z" fill="#E2F0DB"/>
<path opacity="0.5" d="M67.4977 83.4851L76.7514 89.2986L84.4752 84.4492L75.275 78.7035L67.4977 83.4851Z" fill="#898989"/>
<path d="M61.7363 42.3346L60.2456 43.2661V28.1786L61.7363 27.2471V42.3346Z" fill="#C5BAA1"/>
<path d="M68.2964 38.2407L60.1543 33.2668L61.6613 32.2491L69.769 37.2405L68.2964 38.2407Z" fill="#C5BAA1"/>
<path d="M92.4482 40.8439L68.2997 55.9889V78.5106L92.4482 63.4163V40.8439Z" fill="white"/>
<path d="M79.1467 51.5845L70.3089 57.2399V67.1704L79.1467 61.515V51.5845Z" fill="#8FCAEA"/>
<path d="M90.8292 44.3207L81.9914 49.9761V59.9066L90.8292 54.2512V44.3207Z" fill="#8FCAEA"/>
<path d="M75.0537 53.4681H74.4019V65.2869H75.0537V53.4681Z" fill="white"/>
<path d="M91.4711 49.8162L91.1483 49.2032L69.1375 62.784L69.4603 63.397L91.4711 49.8162Z" fill="white"/>
<path d="M86.7355 46.2043H86.085V58.0231H86.7355V46.2043Z" fill="white"/>
<g opacity="0.42">
<path d="M78.5665 63.9281V69.8807L70.8893 74.7419V68.7893L78.5665 63.9281ZM79.1467 62.8331L70.3089 68.4291V75.8369L79.1467 70.2409V62.8331Z" fill="#D1D1D1"/>
</g>
<path opacity="0.11" d="M12.0142 63.2891L23.9558 55.8749L64.203 81.1178L61.0142 83.0791L12.0142 63.2891Z" fill="black"/>
<g opacity="0.42">
<path d="M90.2488 56.5186V62.4713L82.5716 67.3325V61.3798L90.2488 56.5186ZM90.8292 55.4237L81.9914 61.0197V68.4274L90.8292 62.8315V55.4237Z" fill="#D1D1D1"/>
</g>
<path opacity="0.42" d="M80.8702 70.5738L80.301 70.9444V48.4622L80.8702 48.0587V70.5738Z" fill="#D1D1D1"/>
<path d="M96.7954 69.2177L81.5669 78.7329L73.9526 73.9752L89.1811 64.46L96.7954 69.2177Z" fill="#F44D19"/>
<path d="M81.5674 79.8426L81.567 78.7328L73.9526 73.9751L73.9533 75.0851L81.5674 79.8426Z" fill="#CC3A17"/>
<path d="M81.5674 79.8426L81.567 78.7329L96.7954 69.2177L96.7959 70.3274L81.5674 79.8426Z" fill="#FC5A44"/>
<path d="M92.4482 40.8135L99.4943 45.1497V44.4156C99.4943 38.9194 96.816 33.8594 92.4482 31.0573V40.8135Z" fill="white"/>
<path d="M99.4944 45.1494L75.3458 60.325L68.2997 46.2043L92.4482 31.057L99.4944 45.1494Z" fill="white"/>
<path d="M68.2997 55.9889L75.3458 60.3251V59.5911C75.3458 54.0949 72.6674 49.0066 68.2997 46.2045V55.9889Z" fill="#BFBFBF"/>
<path d="M73.8814 42.703L71.0965 44.4498C75.4643 47.2519 78.1643 52.349 78.1643 57.845V58.5286L80.8702 56.8313V56.0526C80.8702 50.5566 78.2492 45.5051 73.8814 42.703Z" fill="#2D43E2"/>
<path d="M79.4875 39.1865L76.7097 40.9289C81.0775 43.7311 83.7377 48.8113 83.7377 54.3074L83.7396 55.0315L86.4437 53.3354V52.515C86.4437 47.0189 83.8555 41.9887 79.4875 39.1865Z" fill="#2D43E2"/>
<path d="M85.0116 35.7218L82.2348 37.4635C86.6026 40.2656 89.2737 45.3544 89.2737 50.8506V51.5606L91.9797 49.8633V49.0582C91.9795 43.5618 89.3793 38.5237 85.0116 35.7218Z" fill="#2D43E2"/>
<path d="M90.5471 32.2495L87.7633 33.9917C92.1311 36.7938 94.8095 41.8823 94.8095 47.3783V48.088L97.5154 46.3908V45.5859C97.5154 40.0897 94.9149 35.0517 90.5471 32.2495Z" fill="#2D43E2"/>
<path d="M40.2876 96.0535L64.1797 81.0817L87.1639 95.1482L63.1597 110.293L40.2876 96.0535Z" fill="#38931F"/>
<path d="M63.1173 95.6956L63.7666 95.2892L64.3927 95.6718L63.7388 96.084L63.1173 95.6956Z" fill="#257212"/>
<path d="M67.4977 97.1783L67.7293 97.0333L67.9528 97.17L67.7195 97.317L67.4977 97.1783Z" fill="#257212"/>
<path d="M55.9339 89.3017L56.1657 89.1567L56.3892 89.2931L56.1556 89.4401L55.9339 89.3017Z" fill="#257212"/>
<path d="M59.8224 94.3614L60.4717 93.955L61.098 94.3378L60.4439 94.7497L59.8224 94.3614Z" fill="#257212"/>
<path d="M56.1614 99.4471L56.8108 99.0406L57.437 99.4235L56.783 99.8354L56.1614 99.4471Z" fill="#257212"/>
<path d="M60.1519 98.9057L60.8012 98.4993L61.4273 98.8819L60.7734 99.2941L60.1519 98.9057Z" fill="#257212"/>
<path d="M64.9966 91.2836L65.6458 90.8772L66.272 91.26L65.618 91.672L64.9966 91.2836Z" fill="#257212"/>
<path d="M67.0876 93.4944L67.7368 93.088L68.3629 93.4708L67.709 93.8828L67.0876 93.4944Z" fill="#257212"/>
<path d="M57.2544 92.5179L57.7496 92.2079L58.2269 92.4999L57.7282 92.814L57.2544 92.5179Z" fill="#257212"/>
<path d="M71.5563 88.9049L71.8971 88.6915L72.226 88.8927L71.8826 89.109L71.5563 88.9049Z" fill="#257212"/>
<path d="M57.5892 89.2492L58.2387 88.8428L58.8648 89.2256L58.2109 89.6376L57.5892 89.2492Z" fill="#257212"/>
<path d="M65.0453 84.3822L65.6946 83.9758L66.3207 84.3587L65.6668 84.7706L65.0453 84.3822Z" fill="#257212"/>
<path d="M63.0532 88.0193L63.7026 87.6132L64.3288 87.9958L63.6748 88.4077L63.0532 88.0193Z" fill="#51B730"/>
<path d="M60.4601 91.2836L61.1095 90.8772L61.7357 91.26L61.0817 91.672L60.4601 91.2836Z" fill="#51B730"/>
<path d="M61.8107 83.9845L62.46 83.5781L63.0861 83.961L62.4322 84.3729L61.8107 83.9845Z" fill="#51B730"/>
<path d="M68.4991 88.4534L69.1486 88.047L69.7747 88.4298L69.1208 88.8418L68.4991 88.4534Z" fill="#51B730"/>
<path d="M59.1847 105.066L59.834 104.66L60.4601 105.043L59.8062 105.455L59.1847 105.066Z" fill="#51B730"/>
<path d="M48.9354 99.3034L49.5847 98.8972L50.2108 99.2798L49.5569 99.692L48.9354 99.3034Z" fill="#51B730"/>
<path d="M56.1614 96.1139L56.8108 95.7075L57.437 96.0903L56.783 96.5023L56.1614 96.1139Z" fill="#51B730"/>
<path d="M58.8648 86.7433L59.5141 86.3369L60.1402 86.7197L59.4863 87.1317L58.8648 86.7433Z" fill="#51B730"/>
<path d="M72.7985 93.8924L73.4479 93.486L74.0741 93.8688L73.4201 94.2807L72.7985 93.8924Z" fill="#51B730"/>
<path d="M71.802 91.5453L72.2337 91.275L72.6501 91.5295L72.2153 91.8037L71.802 91.5453Z" fill="#51B730"/>
<path d="M59.2046 102.061L59.5079 101.872L59.8004 102.051L59.495 102.243L59.2046 102.061Z" fill="#51B730"/>
<path d="M54.2978 99.6268L54.601 99.437L54.8935 99.6157L54.5882 99.8083L54.2978 99.6268Z" fill="#51B730"/>
<path d="M67.8833 87.784L68.1563 87.6132L68.4196 87.7738L68.1446 87.9472L67.8833 87.784Z" fill="#51B730"/>
<path d="M63.1494 89.6928L63.4223 89.522L63.6855 89.6829L63.4107 89.856L63.1494 89.6928Z" fill="#51B730"/>
<path d="M62.5352 94.0548L62.8081 93.8839L63.0714 94.0448L62.7966 94.218L62.5352 94.0548Z" fill="#51B730"/>
<path d="M60.2507 95.3533L60.5236 95.1825L60.7869 95.3434L60.5121 95.5165L60.2507 95.3533Z" fill="#51B730"/>
<path d="M18.1714 58.9724L25.2993 63.4278L31.0029 59.8632L23.9052 55.4462L18.1714 58.9724Z" fill="#EADFC5"/>
<path d="M20.8583 58.8682L25.2992 61.6455L25.3007 56.3144L20.8387 53.509L20.8583 58.8682Z" fill="#257212"/>
<path d="M20.8387 53.5091L23.6879 51.7336L28.1429 54.5147L28.1508 59.8614L25.2992 61.6457L25.3007 56.3145L20.8387 53.5091Z" fill="#38931F"/>
<path d="M25.3007 56.3145L28.1429 54.5146L28.1508 59.8613L25.2992 61.6456L25.3007 56.3145Z" fill="#1F600D"/>
<path d="M31.0029 59.8632L25.2992 63.4278V63.8852L31.0029 60.3208V59.8632Z" fill="#C5BAA1"/>
<path d="M18.1714 58.9723L25.2993 63.4277V63.8851L18.1714 59.4299V58.9723Z" fill="#D9CEB1"/>
<path d="M30.1501 66.5722L37.2777 71.0277L42.9814 67.463L35.8839 63.0458L30.1501 66.5722Z" fill="#EADFC5"/>
<path d="M32.8368 66.468L37.2777 69.2454L37.2792 63.9143L32.8171 61.1089L32.8368 66.468Z" fill="#257212"/>
<path d="M32.8171 61.109L35.6664 59.3335L40.1214 62.1146L40.1293 67.4612L37.2777 69.2455L37.2792 63.9144L32.8171 61.109Z" fill="#38931F"/>
<path d="M37.2792 63.9143L40.1214 62.1145L40.1293 67.4611L37.2777 69.2454L37.2792 63.9143Z" fill="#1F600D"/>
<path d="M42.9814 67.463L37.2777 71.0277V71.4851L42.9814 67.9207V67.463Z" fill="#C5BAA1"/>
<path d="M30.1501 66.5723L37.2777 71.0277V71.4851L30.1501 67.0299V66.5723Z" fill="#D9CEB1"/>
<path d="M111.174 71.1899L112.634 70.2765L110.122 68.6887L108.658 69.6042L111.174 71.1899Z" fill="#7A5C41"/>
<path d="M112.634 65.5261L111.171 64.5282V71.1899L112.634 72.1054V65.5261Z" fill="#AF8B66"/>
<path d="M112.633 65.5261L114.097 64.5282V71.1908L112.633 72.1054V65.5261Z" fill="#7A5C41"/>
<path d="M120.302 61.0048L112.649 56.2429L104.966 61.003L112.619 65.7649L120.302 61.0048Z" fill="#EED1A7"/>
<path d="M120.302 61.0048L120.303 62.1173L112.619 66.8773V65.7648L120.302 61.0048Z" fill="#AF8B66"/>
<path d="M112.619 66.8774L104.966 62.1155V61.0029L112.619 65.7648V66.8774Z" fill="#E9B384"/>
<path d="M110.118 73.6914L108.658 72.7777L111.171 71.1899L112.634 72.1055L110.118 73.6914Z" fill="#AF8B66"/>
<path d="M115.151 73.6914L116.611 72.7777L114.098 71.1899L112.634 72.1055L115.151 73.6914Z" fill="#7A5C41"/>
<path d="M114.095 71.1899L112.634 70.2765L115.147 68.6887L116.611 69.6042L114.095 71.1899Z" fill="#7A5C41"/>
<path d="M45.5471 76.3792L52.6749 80.8347L58.3786 77.27L51.2809 72.8528L45.5471 76.3792Z" fill="#EADFC5"/>
<path d="M48.2338 76.275L52.6749 79.0524L52.6762 73.7213L48.2141 70.9159L48.2338 76.275Z" fill="#257212"/>
<path d="M51.6416 75.0011L52.101 75.2879V74.7373L51.6395 74.4476L51.6416 75.0011Z" fill="#38931F"/>
<path d="M33.1963 62.4721L33.6556 62.759L33.6559 62.2084L33.1944 61.9185L33.1963 62.4721Z" fill="#38931F"/>
<path d="M36.2438 64.6622L36.5656 64.8631V64.4775L36.2425 64.2745L36.2438 64.6622Z" fill="#38931F"/>
<path d="M35.4782 63.2302L35.8001 63.4311V63.0455L35.4767 62.8425L35.4782 63.2302Z" fill="#38931F"/>
<path d="M34.87 65.9101L35.1919 66.111L35.1921 65.7254L34.8688 65.5225L34.87 65.9101Z" fill="#38931F"/>
<path d="M34.5886 64.8925L35.048 65.1794L35.0482 64.6288L34.5867 64.3389L34.5886 64.8925Z" fill="#1F600D"/>
<path d="M32.9647 65.2687L33.2292 65.434V65.1169L32.9634 64.95L32.9647 65.2687Z" fill="#1F600D"/>
<path d="M34.264 63.3175L34.4137 63.4112V63.2318L34.2634 63.1372L34.264 63.3175Z" fill="#1F600D"/>
<path d="M33.3907 63.9284L33.5404 64.0218V63.8424L33.39 63.748L33.3907 63.9284Z" fill="#1F600D"/>
<path d="M33.8872 65.7234L34.0369 65.8168V65.6374L33.8866 65.5431L33.8872 65.7234Z" fill="#1F600D"/>
<path d="M21.2178 55.0683L21.6772 55.3552L21.6774 54.8045L21.2159 54.5146L21.2178 55.0683Z" fill="#38931F"/>
<path d="M24.2653 57.2584L24.5871 57.4595V57.0737L24.264 56.8707L24.2653 57.2584Z" fill="#38931F"/>
<path d="M23.4997 55.8268L23.8214 56.0276L23.8216 55.6418L23.4982 55.4388L23.4997 55.8268Z" fill="#38931F"/>
<path d="M22.8916 58.5063L23.2134 58.7075V58.3216L22.8903 58.1187L22.8916 58.5063Z" fill="#38931F"/>
<path d="M22.6102 57.4887L23.0695 57.7756L23.0697 57.225L22.6082 56.9353L22.6102 57.4887Z" fill="#1F600D"/>
<path d="M20.9862 57.8651L21.2507 58.0304V57.7132L20.9849 57.5465L20.9862 57.8651Z" fill="#1F600D"/>
<path d="M22.2855 55.914L22.435 56.0074L22.4352 55.828L22.2849 55.7336L22.2855 55.914Z" fill="#1F600D"/>
<path d="M21.4122 56.5249L21.5619 56.6183V56.4389L21.4116 56.3444L21.4122 56.5249Z" fill="#1F600D"/>
<path d="M21.9087 58.3197L22.0584 58.4131V58.2337L21.9081 58.1394L21.9087 58.3197Z" fill="#1F600D"/>
<path d="M51.301 73.8603L51.5174 73.9953V73.7361L51.3001 73.5997L51.301 73.8603Z" fill="#38931F"/>
<path d="M51.0454 75.8589L51.3386 76.0419V75.6906L51.0441 75.5056L51.0454 75.8589Z" fill="#1F600D"/>
<path d="M51.3713 76.66L51.6645 76.8431L51.6647 76.4917L51.37 76.3068L51.3713 76.66Z" fill="#1F600D"/>
<path d="M49.3933 76.4638L49.6864 76.6469L49.6866 76.2955L49.392 76.1106L49.3933 76.4638Z" fill="#1F600D"/>
<path d="M50.4197 74.3493L50.7129 74.5322V74.1808L50.4184 73.9958L50.4197 74.3493Z" fill="#1F600D"/>
<path d="M48.9932 75.8424L49.2297 75.9901L49.2299 75.7065L48.9921 75.5574L48.9932 75.8424Z" fill="#1F600D"/>
<path d="M49.5688 75.0527L49.8053 75.2004V74.9168L49.5678 74.7675L49.5688 75.0527Z" fill="#1F600D"/>
<path d="M48.6987 73.6681L48.9352 73.8158L48.9354 73.5322L48.6976 73.3828L48.6987 73.6681Z" fill="#38931F"/>
<path d="M49.2307 73.3611L49.4675 73.5088V73.2251L49.2299 73.0758L49.2307 73.3611Z" fill="#38931F"/>
<path d="M50.5669 76.9121L50.8034 77.0598V76.7762L50.5658 76.6268L50.5669 76.9121Z" fill="#38931F"/>
<path d="M51.9831 78.2137L52.2198 78.3615V78.0778L51.9823 77.9285L51.9831 78.2137Z" fill="#38931F"/>
<path d="M50.2086 72.4099L50.4451 72.5576V72.274L50.2076 72.1246L50.2086 72.4099Z" fill="#38931F"/>
<path d="M48.2141 70.9159L51.0636 69.1404L55.5184 71.9215L55.5263 77.2681L52.6749 79.0524L52.6762 73.7213L48.2141 70.9159Z" fill="#38931F"/>
<path d="M52.6762 73.7213L55.5184 71.9215L55.5263 77.2681L52.6749 79.0524L52.6762 73.7213Z" fill="#1F600D"/>
<path d="M58.3786 77.2699L52.6749 80.8346V81.292L58.3786 77.7273V77.2699Z" fill="#C5BAA1"/>
<path d="M45.5471 76.3793L52.6749 80.8347V81.2921L45.5471 76.8367V76.3793Z" fill="#D9CEB1"/>
<path d="M24.5869 57.201L20.0996 58.1367L26.8802 62.3393L31.3677 61.4037L24.5869 57.201Z" fill="#76AFEA"/>
<path d="M17.6509 72.0514C16.871 72.3084 16.2156 73.4626 16.1878 74.6286C16.1598 75.7946 16.7699 76.5316 17.5498 76.2747C18.3305 76.0175 18.9857 74.8633 19.0135 73.6973C19.0413 72.5313 18.4314 71.7943 17.6509 72.0514Z" fill="#647171"/>
<path d="M17.6212 73.2953C17.3006 73.4009 17.0314 73.875 17.0198 74.3539C17.0083 74.8329 17.2591 75.1358 17.5795 75.03C17.9002 74.9243 18.1695 74.4502 18.181 73.9712C18.1928 73.4925 17.9421 73.1896 17.6212 73.2953Z" fill="#99ABAB"/>
<path d="M27.4781 65.4908C26.6229 65.7725 25.9046 67.0381 25.8738 68.3163C25.8432 69.5946 26.5119 70.4029 27.3671 70.121C28.2229 69.839 28.9414 68.5735 28.972 67.2952C29.0026 66.017 28.3339 65.2089 27.4781 65.4908Z" fill="#647171"/>
<path d="M27.4456 66.8545C27.0943 66.9702 26.7989 67.4901 26.7863 68.0151C26.7737 68.5401 27.0485 68.8722 27.4001 68.7565C27.7518 68.6405 28.0469 68.1209 28.0595 67.5959C28.0722 67.0706 27.7974 66.7386 27.4456 66.8545Z" fill="#99ABAB"/>
<path d="M26.8802 62.3394L27.0004 58.0803L19.4076 62.711L17.9101 67.947L13.424 72.6181V76.3562L15.796 74.8737C15.7958 74.8351 15.7939 74.7976 15.7949 74.758C15.8306 73.2677 16.6681 71.7926 17.665 71.4642C18.4432 71.2077 19.0868 71.7267 19.3161 72.6737L25.6245 68.731C25.6181 68.6241 25.6144 68.5146 25.6172 68.4009C25.6529 66.9106 26.4903 65.4356 27.4873 65.1071C28.317 64.8337 28.9942 65.4409 29.1788 66.5099L31.3679 65.1418V61.4038L26.8802 62.3394Z" fill="#5E96E5"/>
<path d="M12.0456 62.4173L10.5985 61.5071C10.4345 61.4038 10.2322 61.4034 10.0678 61.5059C9.90333 61.6082 9.80197 61.798 9.80197 62.0034C9.80197 62.5444 10.0678 63.0446 10.5 63.3164L12.0456 64.2886V62.4173Z" fill="#76AFEA"/>
<path d="M4.45306 67.0115L13.424 72.6195V76.3561L4.45306 70.7484V67.0115Z" fill="#89C0F3"/>
<path d="M17.9101 67.947L10.4164 63.2636L13.7382 59.1686L19.4076 62.711L17.9101 67.947Z" fill="#76AFEA"/>
<path d="M17.6411 67.5569L10.9238 63.3586L13.8689 59.538L19.0308 62.6975L17.6411 67.5569Z" fill="#B7FDFB"/>
<path d="M3.97726 69.4696V70.4763L13.8094 76.6413V75.6318L3.97726 69.4696Z" fill="#99ABAB"/>
<path d="M15.3065 74.6957V75.702L13.8094 76.6404V75.6314L15.3065 74.6957Z" fill="#8A7C7C"/>
<path d="M5.53167 69.8329C5.90145 69.7406 6.1217 69.2924 6.02363 68.8318C5.92555 68.3711 5.54628 68.0725 5.1765 68.1647C4.80672 68.257 4.58647 68.7052 4.68454 69.1659C4.78262 69.6265 5.16189 69.9252 5.53167 69.8329Z" fill="#647171"/>
<path d="M5.72267 69.4483C6.00258 69.2985 6.10044 68.8944 5.94124 68.5457C5.78204 68.1969 5.42606 68.0356 5.14615 68.1853C4.86623 68.335 4.76837 68.7391 4.92757 69.0879C5.08678 69.4367 5.44275 69.598 5.72267 69.4483Z" fill="#F3BE54"/>
<path d="M12.5272 74.1491C12.8969 74.0568 13.1172 73.6086 13.0191 73.1479C12.921 72.6873 12.5418 72.3886 12.172 72.4809C11.8022 72.5732 11.5819 73.0214 11.68 73.482C11.7781 73.9427 12.1574 74.2413 12.5272 74.1491Z" fill="#647171"/>
<path d="M12.7174 73.7644C12.9974 73.6147 13.0952 73.2106 12.936 72.8618C12.7768 72.5131 12.4208 72.3517 12.1409 72.5015C11.861 72.6512 11.7632 73.0553 11.9224 73.4041C12.0816 73.7528 12.4375 73.9142 12.7174 73.7644Z" fill="#F3BE54"/>
<path d="M3.97726 69.4694L4.45093 69.2581V69.7676L3.97726 69.4694Z" fill="#8A7C7C"/>
<path d="M21.4601 55.058L27.0004 58.0803L19.4076 62.7109L13.7382 59.1685L21.4601 55.058Z" fill="#76AFEA"/>
<path d="M4.45306 67.0115L10.4163 63.2635L17.9101 67.947L13.424 72.6184L4.45306 67.0115Z" fill="#76AFEA"/>
<path d="M18.5345 67.5568L26.5021 62.5669L26.5588 58.8844L19.7752 63.0449L18.5345 67.5568Z" fill="#B7FDFB"/>
<path opacity="0.3" d="M18.5345 67.5568L26.5021 62.5669L26.5588 58.8844L19.7752 63.0449L18.5345 67.5568Z" fill="#647171"/>
<path opacity="0.3" d="M10.9238 63.3587L14.922 62.3416L18.4943 64.5742L17.6411 67.5569L10.9238 63.3587Z" fill="#647171"/>
<path d="M22.3433 65.4348V61.3727L22.7421 61.087V65.3598L22.3433 65.4348Z" fill="#5E96E5"/>
<path d="M20.1527 68.3498C20.1527 67.8178 19.8911 67.3259 19.4662 67.0585L18.7171 66.5875C18.5508 66.4828 18.3453 66.4824 18.1785 66.5863C18.0117 66.6902 17.9088 66.8826 17.9088 67.0909V67.9502L19.3441 68.853C19.5105 68.9576 19.716 68.9581 19.8828 68.8542C20.05 68.7507 20.1527 68.5581 20.1527 68.3498Z" fill="#76AFEA"/>
<path d="M21.4601 66.411L22.3959 65.8149V66.411L21.4601 67.0107V66.411Z" fill="#76AFEA"/>
<path d="M25.4464 64.0111L26.3821 63.4153V64.0111L25.4464 64.6108V64.0111Z" fill="#76AFEA"/>
<path d="M6.9155 69.383C6.78762 69.3034 6.63002 69.3034 6.50235 69.3835C6.37469 69.4636 6.29578 69.611 6.29578 69.771C6.29578 69.931 6.37469 70.0789 6.50278 70.1587L10.6543 72.7486C10.7827 72.8285 10.9405 72.8285 11.0686 72.7484C11.1967 72.6683 11.2756 72.5201 11.2756 72.3599C11.2756 72.1995 11.1964 72.0514 11.0679 71.9713L6.9155 69.383Z" fill="#647171"/>
<path opacity="0.2" d="M14.922 62.3415L15.7118 60.666L19.0308 62.6975L18.4943 64.5742L14.922 62.3415Z" fill="#647171"/>
<path d="M39.5177 67.3237L35.0304 68.2594L41.811 72.462L46.2985 71.5264L39.5177 67.3237Z" fill="#EA7A76"/>
<path d="M32.5817 82.1743C31.8018 82.4313 31.1464 83.5854 31.1186 84.7514C31.0906 85.9174 31.7007 86.6545 32.4806 86.3975C33.2613 86.1404 33.9165 84.9862 33.9443 83.8202C33.9723 82.6542 33.3622 81.9169 32.5817 82.1743Z" fill="#716469"/>
<path d="M32.5522 83.418C32.2316 83.5236 31.9624 83.9977 31.9508 84.4766C31.9393 84.9556 32.1901 85.2585 32.5105 85.1527C32.8312 85.047 33.1005 84.5729 33.112 84.0939C33.1236 83.615 32.8729 83.3123 32.5522 83.418Z" fill="#AB99A0"/>
<path d="M42.4089 75.6135C41.5537 75.8952 40.8354 77.1607 40.8046 78.439C40.774 79.7173 41.4427 80.5256 42.2979 80.2437C43.1537 79.9617 43.8722 78.6962 43.9028 77.4179C43.9334 76.1397 43.2647 75.3315 42.4089 75.6135Z" fill="#716469"/>
<path d="M42.3764 76.9771C42.0251 77.0928 41.7297 77.6127 41.7171 78.1377C41.7045 78.6628 41.9793 78.9948 42.3309 78.8791C42.6826 78.7632 42.9777 78.2435 42.9904 77.7185C43.003 77.1932 42.7282 76.8614 42.3764 76.9771Z" fill="#AB99A0"/>
<path d="M41.811 72.4621L41.9312 68.203L34.3384 72.8337L32.8409 78.0696L28.3549 82.7408V86.4788L30.7268 84.9964C30.7266 84.9577 30.7247 84.9202 30.7257 84.8807C30.7615 83.3904 31.5989 81.9153 32.5958 81.5868C33.374 81.3304 34.0177 81.8493 34.2469 82.7964L40.5553 78.8537C40.5489 78.7467 40.5453 78.6372 40.548 78.5236C40.5837 77.0333 41.4212 75.5583 42.4181 75.2298C43.2478 74.9564 43.9251 75.5636 44.1096 76.6326L46.2987 75.2645V71.5265L41.811 72.4621Z" fill="#E55C52"/>
<path d="M26.9764 72.5398L25.5293 71.6296C25.3653 71.5264 25.163 71.5259 24.9986 71.6285C24.8341 71.7308 24.7328 71.9206 24.7328 72.1259C24.7328 72.6669 24.9986 73.1672 25.4308 73.4389L26.9764 74.4112V72.5398Z" fill="#EA7A76"/>
<path d="M19.3839 77.134L28.3549 82.742V86.4787L19.3839 80.8709V77.134Z" fill="#F38B89"/>
<path d="M32.8409 78.0694L25.3474 73.386L28.669 69.291L34.3384 72.8335L32.8409 78.0694Z" fill="#EA7A76"/>
<path d="M32.5719 77.6796L25.8546 73.4813L28.7997 69.6606L33.9619 72.8202L32.5719 77.6796Z" fill="#B7FDFB"/>
<path d="M18.9081 79.5925V80.599L28.7402 86.764V85.7545L18.9081 79.5925Z" fill="#99ABAB"/>
<path d="M30.2373 84.8185V85.8245L28.7402 86.763V85.754L30.2373 84.8185Z" fill="#8A7C7C"/>
<path d="M20.4634 79.9552C20.8332 79.863 21.0535 79.4147 20.9554 78.9541C20.8573 78.4934 20.4781 78.1948 20.1083 78.2871C19.7385 78.3793 19.5182 78.8275 19.6163 79.2882C19.7144 79.7488 20.0937 80.0475 20.4634 79.9552Z" fill="#716469"/>
<path d="M20.6531 79.571C20.933 79.4212 21.0309 79.0171 20.8717 78.6684C20.7125 78.3196 20.3565 78.1583 20.0766 78.308C19.7967 78.4577 19.6988 78.8618 19.858 79.2106C20.0172 79.5593 20.3732 79.7207 20.6531 79.571Z" fill="#F3BE54"/>
<path d="M27.4589 84.2714C27.8287 84.1791 28.049 83.7309 27.9509 83.2703C27.8528 82.8096 27.4735 82.511 27.1037 82.6032C26.734 82.6955 26.5137 83.1437 26.6118 83.6043C26.7099 84.065 27.0891 84.3636 27.4589 84.2714Z" fill="#716469"/>
<path d="M27.6479 83.8869C27.9278 83.7371 28.0257 83.333 27.8665 82.9843C27.7073 82.6355 27.3513 82.4742 27.0714 82.6239C26.7915 82.7736 26.6936 83.1777 26.8528 83.5265C27.012 83.8752 27.368 84.0366 27.6479 83.8869Z" fill="#F3BE54"/>
<path d="M18.9081 79.5923L19.3817 79.3807V79.8902L18.9081 79.5923Z" fill="#868A7C"/>
<path d="M36.3909 65.1807L41.9312 68.2029L34.3384 72.8336L28.669 69.2912L36.3909 65.1807Z" fill="#EA7A76"/>
<path d="M19.3839 77.1341L25.3474 73.3861L32.8409 78.0695L28.3549 82.7409L19.3839 77.1341Z" fill="#EA7A76"/>
<path d="M33.4653 77.6795L41.4329 72.6898L41.4898 69.0071L34.7062 73.1676L33.4653 77.6795Z" fill="#B7FDFB"/>
<path opacity="0.3" d="M25.8546 73.4813L29.8528 72.4641L33.4251 74.6968L32.5719 77.6795L25.8546 73.4813Z" fill="#716469"/>
<path d="M37.2741 75.5575V71.4954L37.6729 71.2097V75.4825L37.2741 75.5575Z" fill="#E55C52"/>
<path d="M35.0835 78.4723C35.0835 77.9404 34.8219 77.4485 34.397 77.1811L33.6479 76.71C33.4816 76.6054 33.2761 76.6049 33.1093 76.7089C32.9425 76.8128 32.8396 77.0052 32.8396 77.2135V78.0728L34.2749 78.9756C34.4413 79.0802 34.6468 79.0807 34.8136 78.9767C34.9808 78.8733 35.0835 78.6807 35.0835 78.4723Z" fill="#EA7A76"/>
<path d="M36.3909 76.5337L37.3267 75.9379V76.5337L36.3909 77.1334V76.5337Z" fill="#EA7A76"/>
<path d="M40.3772 74.1338L41.3129 73.538V74.1338L40.3772 74.7338V74.1338Z" fill="#EA7A76"/>
<path d="M21.8463 79.5057C21.7184 79.4261 21.5608 79.4261 21.4332 79.5062C21.3053 79.5863 21.2266 79.7337 21.2266 79.8937C21.2266 80.0536 21.3055 80.2016 21.4336 80.2814L25.5852 82.8713C25.7135 82.9512 25.8713 82.9512 25.9994 82.8711C26.1275 82.791 26.2064 82.6428 26.2064 82.4826C26.2064 82.3222 26.1273 82.174 25.9987 82.0939L21.8463 79.5057Z" fill="#716469"/>
<path opacity="0.2" d="M29.8528 72.4641L30.6426 70.7886L33.9619 72.8201L33.4251 74.6968L29.8528 72.4641Z" fill="#716469"/>
<path d="M70.2615 72.5537L67.7253 83.6537L68.8777 84.3739L69.2945 82.55L74.4975 85.8417L74.0891 87.6299L75.3358 88.4087L77.872 77.3087L70.2615 72.5537Z" fill="#E9B384"/>
<path d="M69.5419 81.5766L71.1857 74.5635L76.3806 77.7385L74.7956 84.8912L69.5419 81.5766Z" fill="#575E5A"/>
<path d="M68.8777 84.3734L69.5419 83.9485L69.7747 82.8541L69.2944 82.5503L68.8777 84.3734Z" fill="#AF8B66"/>
<path d="M75.3387 88.4089L76.0027 87.9839L78.5227 76.9056L77.8719 77.3089L75.3387 88.4089Z" fill="#AF8B66"/>
<path d="M80.4146 85.2382L81.0785 84.8132L78.5227 76.9056L77.8719 77.3089L80.4146 85.2382Z" fill="#AF8B66"/>
<path d="M69.5419 81.5766L70.1237 81.3842L71.6576 74.8519L71.1857 74.5635L69.5419 81.5766Z" fill="#AF8B66"/>
<path d="M70.1237 81.3842L74.9102 84.374L74.7956 84.8912L69.5419 81.5765L70.1237 81.3842Z" fill="#EED1A7"/>
<path d="M70.8512 72.1836L78.5227 76.9057L77.8719 77.3089L70.2771 72.5741L70.8512 72.1836Z" fill="#EED1A7"/>
<path d="M80.4146 85.2381L79.245 84.5094L78.7027 83.1376L77.2815 82.3629L78.1989 78.329L80.4146 85.2381Z" fill="#7A5C41"/>
<path d="M77.0437 33.5687L76.2234 34.0886V31.9862L77.0437 31.4663V33.5687Z" fill="white"/>
<path d="M75.503 33.6516L76.2234 34.0884V31.986L75.503 31.5494V33.6516Z" fill="#BFBFBF"/>
<path d="M83.6066 29.8128L82.7863 30.3327V28.2304L83.6066 27.7107V29.8128Z" fill="white"/>
<path d="M82.0656 29.8958L82.7863 30.3326V28.2303L82.0656 27.7937V29.8958Z" fill="#BFBFBF"/>
<path d="M0.000854906 70.8531L46.0351 99.6304L46.0904 102.617L0 73.9673L0.000854906 70.8531Z" fill="#898989"/>
<path d="M63.1494 110.293L46.0351 99.6304V102.583L63.1563 113.279L63.1494 110.293Z" fill="#1F600D"/>
<path d="M45.908 85.1077L47.7471 82.1821L51.9628 84.8107L50.1235 87.7362L45.908 85.1077Z" fill="#38931F"/>
<path d="M36.7814 93.0025L46.0351 98.8163L55.3993 92.9499L46.1993 87.2042L36.7814 93.0025Z" fill="white"/>
<path d="M55.3993 92.95L46.0351 98.816V99.6304L55.3993 93.7641V92.95Z" fill="#C5BAA1"/>
<path d="M36.7814 93.0024L46.0351 98.816V99.6304L36.7814 93.8168V93.0024Z" fill="#D9CEB1"/>
<path d="M50.1285 93.0024L51.9675 90.0769L50.1268 91.2302L50.1285 93.0024Z" fill="#38931F"/>
<path d="M43.5412 90.0862L43.5363 84.8197L47.7471 82.1821L51.9628 84.8107L51.9675 90.077L47.757 92.7148L43.5412 90.0862Z" fill="#38931F"/>
<path d="M41.702 93.0118L41.6973 87.7452L45.9081 85.1077L50.1236 87.7362L50.1285 93.0025L45.9177 95.6403L41.702 93.0118Z" fill="#257212"/>
<path d="M45.7455 87.3137L45.7451 86.9519L46.0349 86.7706L46.3248 86.9512L46.3251 87.313L46.0355 87.4942L45.7455 87.3137Z" fill="#38931F"/>
<path d="M42.9912 89.0815L42.9908 88.7197L43.2806 88.5385L43.5705 88.719L43.5708 89.0808L43.2812 89.262L42.9912 89.0815Z" fill="#1F600D"/>
<path d="M43.8167 91.0907L43.8162 90.5965L44.2121 90.3486L44.6083 90.5955L44.6087 91.09L44.2129 91.3376L43.8167 91.0907Z" fill="#1F600D"/>
<path d="M47.3562 89.9364L47.3558 89.4419L47.7516 89.1943L48.1479 89.4412L48.1483 89.9355L47.7525 90.1833L47.3562 89.9364Z" fill="#1F600D"/>
<path d="M46.3257 92.4552L46.325 91.9607L46.7211 91.7131L47.1173 91.9598L47.1178 92.4543L46.7219 92.7019L46.3257 92.4552Z" fill="#38931F"/>
<path d="M45.3942 93.5816L45.394 93.3906L45.5469 93.2949L45.7 93.3902L45.7002 93.5811L45.5473 93.6768L45.3942 93.5816Z" fill="#38931F"/>
<path d="M42.2009 92.607V92.416L42.3535 92.3203L42.5067 92.4158L42.5069 92.6065L42.354 92.7022L42.2009 92.607Z" fill="#38931F"/>
<path d="M49.077 88.1425L49.0768 87.9515L49.2297 87.8558L49.3826 87.9513L49.3828 88.142L49.2299 88.2377L49.077 88.1425Z" fill="#38931F"/>
<path d="M49.077 92.4157L49.0768 92.2247L49.2297 92.1293L49.3826 92.2245L49.3828 92.4155L49.2299 92.5109L49.077 92.4157Z" fill="#38931F"/>
<path d="M41.6973 87.7452L43.5363 84.8197L47.7471 82.1821L45.9081 85.1077L41.6973 87.7452Z" fill="#1F600D"/>
<path d="M84.5336 21.2725L77.174 25.8635V32.7549L84.5317 28.1564L84.5336 21.2725Z" fill="white"/>
<path d="M77.1739 25.8634L84.5336 21.2724L80.8151 19.0133L73.5245 23.7125L77.1739 25.8634Z" fill="#DBDBDB"/>
<path d="M73.5245 23.7125V30.4536L77.1739 32.7548V25.8635L73.5245 23.7125Z" fill="#BFBFBF"/>
<path d="M82.1565 23.8071C81.2733 24.0981 80.5313 25.405 80.4999 26.7252C80.4682 28.0454 81.1589 28.8801 82.0421 28.5891C82.9259 28.2979 83.668 26.991 83.6996 25.6708C83.7313 24.3506 83.0406 23.5159 82.1565 23.8071Z" fill="#A4A5A5"/>
<path d="M82.1232 25.2155C81.7603 25.3351 81.4553 25.8719 81.4423 26.414C81.4292 26.9564 81.7132 27.2993 82.0761 27.1797C82.4394 27.06 82.7442 26.5232 82.7572 25.9809C82.7702 25.4387 82.4863 25.0958 82.1232 25.2155Z" fill="#BCBCBC"/>
<path opacity="0.63" d="M27.0004 53.2774L32.3538 56.6897L51.8702 44.7856L45.5471 41.2693L27.0004 53.2774Z" fill="white"/>
<path opacity="0.34" d="M33.7679 57.4526L35.2663 58.4853L54.783 46.5811L52.3146 45.4447L33.7679 57.4526Z" fill="white"/>
<path d="M23.9264 25.7369L27.9394 28.1942L15.9729 35.723L11.9533 33.2038L23.9264 25.7369Z" fill="white"/>
<path d="M27.9648 28.1791L31.9894 30.6946L19.9983 38.2385L15.9729 35.723L27.9648 28.1791Z" fill="#2D43E2"/>
<path d="M31.9817 30.6958L36.0062 33.2114L24.029 40.7509L19.9983 38.2385L31.9817 30.6958Z" fill="white"/>
<path d="M35.9023 33.1973L40.0318 35.6459L28.0488 43.2697L24.029 40.7509L35.9023 33.1973Z" fill="#2D43E2"/>
<path d="M39.9335 35.7086L44.0266 38.2587L32.0743 45.779L28.0489 43.2697L39.9335 35.7086Z" fill="white"/>
<path d="M44.0602 38.2374L48.085 40.753L36.0995 48.2946L32.0743 45.779L44.0602 38.2374Z" fill="#2D43E2"/>
<path d="M48.0578 40.77L52.1108 43.2715L40.1201 50.8075L36.0994 48.2945L48.0578 40.77Z" fill="white"/>
<path d="M52.1108 43.2715L56.1355 45.787L44.1453 53.3284L40.1201 50.8075L52.1108 43.2715Z" fill="#2D43E2"/>
<path d="M56.1356 45.7871L60.159 48.3008L48.1697 55.8507L44.1453 53.3285L56.1356 45.7871Z" fill="white"/>
<path d="M60.159 48.3008L64.1838 50.8163L52.1991 58.3637L48.1696 55.8507L60.159 48.3008Z" fill="#2D43E2"/>
<path d="M11.9533 33.2041L11.9503 35.8713C11.9485 37.3361 12.6698 38.6903 13.8417 39.4228C14.2814 39.6975 14.8228 39.6975 15.2625 39.4228C15.7022 39.148 15.9729 38.6403 15.9729 38.0908V35.7231L11.9533 33.2041Z" fill="#B8B6B4"/>
<path d="M15.9729 35.723L19.9983 38.2386V40.6051C19.9983 41.1657 19.7201 41.6833 19.2699 41.9604C18.8196 42.2375 18.2666 42.2317 17.8216 41.9449C16.6753 41.2067 15.9729 39.8696 15.9729 38.4256V35.723Z" fill="#192B82"/>
<path d="M19.9976 38.2385L19.9946 40.9057C19.9929 42.3706 20.7142 43.7248 21.8861 44.4572L21.8923 44.4611C22.3313 44.7354 22.8721 44.7359 23.3114 44.462C23.7506 44.1882 24.022 43.6819 24.0232 43.1331L24.0288 40.7509L19.9976 38.2385Z" fill="#B8B6B4"/>
<path d="M24.029 40.7506L28.0488 43.2696L28.0514 45.6327C28.0521 46.1929 27.7745 46.7102 27.3248 46.9875C26.8751 47.2649 26.3223 47.2591 25.8777 46.9727C24.7315 46.2345 24.029 44.8975 24.029 43.4534V40.7506Z" fill="#192B82"/>
<path d="M28.0488 43.2697L28.0459 45.9368C28.0441 47.4017 28.7654 48.7559 29.9373 49.4883L29.9405 49.4902C30.3797 49.7647 30.921 49.7649 31.3604 49.4906C31.7999 49.2163 32.071 48.7094 32.0717 48.1603L32.0745 45.779L28.0488 43.2697Z" fill="#B8B6B4"/>
<path d="M32.0743 45.7791L36.0994 48.2946L36.0967 50.6618C36.0964 51.2225 35.8182 51.7396 35.3679 52.0165C34.9175 52.2933 34.3647 52.2871 33.9197 52.0002C32.7742 51.2616 32.0723 49.9245 32.073 48.481L32.0743 45.7791Z" fill="#192B82"/>
<path d="M36.0994 48.2946L36.0971 50.9624C36.0958 52.4268 36.8169 53.7805 37.9885 54.5127L37.9892 54.5132C38.4288 54.788 38.9703 54.788 39.41 54.5132C39.8496 54.2384 40.1204 53.7308 40.1204 53.1812V50.8073L36.0994 48.2946Z" fill="#B8B6B4"/>
<path d="M40.1201 50.8076L44.1453 53.3287L44.146 55.6908C44.1462 56.2512 43.8682 56.7686 43.418 57.0457C42.9679 57.3228 42.4151 57.3168 41.9701 57.0302L41.9686 57.0293C40.8224 56.2906 40.1199 54.9533 40.1199 53.5093L40.1201 50.8076Z" fill="#192B82"/>
<path d="M44.1453 53.3284L44.1442 56.0043C44.1436 57.468 44.8647 58.8208 46.0357 59.5526L46.038 59.554C46.4775 59.8287 47.019 59.8287 47.4586 59.554C47.8981 59.2794 48.169 58.7718 48.1692 58.2225L48.1699 55.8504L44.1453 53.3284Z" fill="#B8B6B4"/>
<path d="M48.1696 55.8507L52.1991 58.3637L52.1983 60.7223C52.198 61.283 51.9198 61.8001 51.4697 62.0772C51.0195 62.3543 50.4665 62.3483 50.0215 62.0617L50.0196 62.0606C48.8738 61.3226 48.1716 59.9862 48.1709 58.5431L48.1696 55.8507Z" fill="#192B82"/>
<path d="M23.9264 25.7369L64.1838 50.8164L64.1797 48.9997L23.9264 23.6112V25.7369Z" fill="#2540C1"/>
<path d="M65.6873 97.5711L63.8542 96.4238L62.5853 98.8028V109.939L63.1494 110.293L65.6873 108.711V97.5711Z" fill="#EAEAEA"/>
<path d="M65.6873 97.571L64.4184 96.7772L63.1494 99.1564V110.293L65.6873 108.711V97.571Z" fill="white"/>
<path d="M62.5853 98.8029L63.1494 99.1566V110.293L62.5853 109.939V98.8029Z" fill="#D3D3D3"/>
<path d="M115.318 66.4141L113.485 65.2668L112.216 67.6458V78.7824L112.78 79.1361L115.318 77.5539V66.4141Z" fill="#EAEAEA"/>
<path d="M115.318 66.4139L114.049 65.6204L112.78 67.9993V79.1359L115.318 77.5537V66.4139Z" fill="white"/>
<path d="M112.216 67.6459L112.78 67.9996V79.1362L112.216 78.7824V67.6459Z" fill="#D3D3D3"/>
<path d="M133.93 54.7836L132.097 53.6364L130.828 56.0153V67.1519L131.392 67.5056L133.93 65.9234V54.7836Z" fill="#EAEAEA"/>
<path d="M133.93 54.7834L132.661 53.9899L131.392 56.3689V67.5054L133.93 65.9232V54.7834Z" fill="white"/>
<path d="M130.828 56.0154L131.392 56.3691V67.5057L130.828 67.152V56.0154Z" fill="#D3D3D3"/>
<path d="M121.522 62.5296L119.689 61.3823L118.42 63.7613V74.8979L118.984 75.2514L121.522 73.6694V62.5296Z" fill="#EAEAEA"/>
<path d="M121.522 62.5295L120.253 61.7357L118.984 64.1149V75.2513L121.522 73.6693V62.5295Z" fill="white"/>
<path d="M118.42 63.7614L118.984 64.1151V75.2514L118.42 74.8979V63.7614Z" fill="#D3D3D3"/>
<path d="M127.726 58.6566L125.893 57.5094L124.624 59.8884V71.025L125.188 71.3787L127.726 69.7965V58.6566Z" fill="#EAEAEA"/>
<path d="M127.726 58.6565L126.457 57.8629L125.188 60.2419V71.3785L127.726 69.7963V58.6565Z" fill="white"/>
<path d="M124.624 59.8884L125.188 60.2421V71.3787L124.624 71.025V59.8884Z" fill="#D3D3D3"/>
<path d="M109.114 70.293L107.281 69.1458L106.013 71.5247V82.6613L106.577 83.015L109.114 81.433V70.293Z" fill="#EAEAEA"/>
<path d="M109.114 70.2928L107.845 69.4993L106.577 71.8783V83.0148L109.114 81.4328V70.2928Z" fill="white"/>
<path d="M106.013 71.5247L106.577 71.8784V83.0149L106.013 82.6612V71.5247Z" fill="#D3D3D3"/>
<path d="M102.911 74.194L101.077 73.0468L99.8087 75.4257V86.5623L100.373 86.9158L102.911 85.3338V74.194Z" fill="#EAEAEA"/>
<path d="M102.911 74.1938L101.642 73.4L100.373 75.7792V86.9156L102.911 85.3336V74.1938Z" fill="white"/>
<path d="M99.8087 75.4258L100.373 75.7795V86.9158L99.8087 86.5624V75.4258Z" fill="#D3D3D3"/>
<path d="M96.7067 78.0362L94.8736 76.8889L93.6047 79.2681V90.4045L94.1688 90.7582L96.7067 89.1762V78.0362Z" fill="#EAEAEA"/>
<path d="M96.7067 78.0361L95.4377 77.2426L94.1688 79.6215V90.7581L96.7067 89.1761V78.0361Z" fill="white"/>
<path d="M93.6047 79.2682L94.1688 79.6217V90.7582L93.6047 90.4045V79.2682Z" fill="#D3D3D3"/>
<path d="M90.5029 81.9238L88.6698 80.7767L87.4008 83.1557V94.2923L87.965 94.6458L90.5029 93.0638V81.9238Z" fill="#EAEAEA"/>
<path d="M90.5028 81.9235L89.2339 81.13L87.965 83.509V94.6456L90.5028 93.0636V81.9235Z" fill="white"/>
<path d="M87.4008 83.1558L87.965 83.5092V94.6458L87.4008 94.2923V83.1558Z" fill="#D3D3D3"/>
<path d="M84.2988 85.8345L82.4659 84.6873L81.197 87.0662V98.2028L81.7611 98.5563L84.2988 96.9743V85.8345Z" fill="#EAEAEA"/>
<path d="M84.2988 85.8344L83.0299 85.0409L81.7611 87.4199V98.5562L84.2988 96.9742V85.8344Z" fill="white"/>
<path d="M81.197 87.0663L81.7611 87.42V98.5563L81.197 98.2029V87.0663Z" fill="#D3D3D3"/>
<path d="M78.095 89.7334L76.2621 88.5862L74.9932 90.9654V102.102L75.5571 102.455L78.095 100.873V89.7334Z" fill="#EAEAEA"/>
<path d="M78.095 89.7332L76.826 88.9397L75.5571 91.3187V102.455L78.095 100.873V89.7332Z" fill="white"/>
<path d="M74.9932 90.9653L75.5571 91.3188V102.455L74.9932 102.102V90.9653Z" fill="#D3D3D3"/>
<path d="M71.8911 93.6588L70.0581 92.5116L68.7891 94.8906V106.027L69.3532 106.381L71.8911 104.799V93.6588Z" fill="#EAEAEA"/>
<path d="M71.8911 93.6587L70.6222 92.8651L69.3532 95.2441V106.381L71.8911 104.799V93.6587Z" fill="white"/>
<path d="M68.7891 94.8905L69.3532 95.2442V106.381L68.7891 106.027V94.8905Z" fill="#D3D3D3"/>
<path d="M132.326 63.9091L63.6911 106.8V103.643L132.326 60.7518V63.9091Z" fill="white"/>
<path d="M63.6911 106.8L63.1494 106.46V103.316L63.6911 103.643V106.8Z" fill="#D3D3D3"/>
<path d="M63.1494 103.316L63.6911 103.643L78.123 94.606L134 59.7013L133.36 59.3309L63.1494 103.316Z" fill="#EAEAEA"/>
<path d="M133.93 68.7513L63.1563 113.28L63.1597 110.293L87.1639 95.1481L133.93 65.9235V68.7513Z" fill="#C1C1C1"/>
<path d="M87.1639 98.1761L63.1563 113.279L63.1494 110.293L87.1639 95.1481V98.1761Z" fill="#257212"/>
<mask id="mask0_124_531" style="mask-type:luminance" maskUnits="userSpaceOnUse" x="79" y="67" width="13" height="9">
<path d="M80.7122 75.3323L79.2771 74.3272L90.295 67.7175L91.7301 68.7226L80.7122 75.3323Z" fill="white"/>
</mask>
<g mask="url(#mask0_124_531)">
<path d="M81.4082 73.0813L80.8664 73.4062L81.0428 73.5297L81.1807 73.4573L81.8464 74.1885L81.8411 74.1917L80.636 73.6864L80.3253 73.8726L81.0178 74.6811L81.0088 74.6864L79.9949 74.2491C79.9323 74.2218 79.9443 74.1901 79.9954 74.1554L80.0685 74.1033L79.8998 73.9853L79.3019 74.3437L79.4783 74.4673L79.6218 74.3893L81.155 75.0305L81.4946 74.8269L80.8142 74.0313L80.8215 74.027L82.0004 74.5235L82.3291 74.3264L81.4987 73.3509C81.463 73.3094 81.4557 73.2833 81.5032 73.2507L81.5763 73.1986L81.4082 73.0813Z" fill="white"/>
<path d="M82.6182 72.3552L81.5146 73.017L81.691 73.1405L81.8345 73.0626L82.8028 73.7403C82.8434 73.7687 82.8269 73.7949 82.7918 73.822L82.7187 73.874L82.8874 73.992L84.0306 73.3064L83.6605 73.0473L83.3992 73.1836L83.5037 73.2567C83.5459 73.2863 83.5655 73.3069 83.5039 73.3437L83.1156 73.5765L82.7251 73.3032L83.2813 72.9695L83.0705 72.8219L82.5143 73.1556L82.1582 72.9064L82.5141 72.693C82.5791 72.6542 82.6094 72.6683 82.6486 72.6956L82.7313 72.7534L82.9629 72.5963L82.6182 72.3552Z" fill="white"/>
<path d="M83.4131 71.8784L82.8333 72.2262L83.0098 72.3497L83.1532 72.2718L84.1215 72.9495C84.1622 72.9779 84.1457 73.0041 84.1089 73.0321L84.0358 73.0842L84.2045 73.2022L85.3477 72.5166L84.9354 72.228L84.6758 72.3655L84.821 72.4671C84.8601 72.4944 84.8828 72.5173 84.8321 72.5476L84.4329 72.7868L83.5037 72.1364C83.4537 72.1015 83.4702 72.0753 83.5087 72.0483L83.5818 71.9962L83.4131 71.8784Z" fill="white"/>
<path d="M84.8636 70.9757C84.4934 71.1978 84.2898 71.5553 84.8317 71.9346C85.3064 72.2668 85.8111 72.2726 86.2989 71.9801C86.4524 71.888 86.6188 71.7557 86.6915 71.6351L86.3307 71.3827L86.0711 71.5201L86.2367 71.6361C86.2773 71.6645 86.2856 71.6798 86.2548 71.7145C86.2221 71.7504 86.1652 71.7927 86.0983 71.8327C86.0934 71.8357 86.0885 71.8388 86.0835 71.8418C85.7606 72.0354 85.4377 71.9688 85.1161 71.7439C84.8022 71.5243 84.7665 71.3022 85.0699 71.1201C85.1187 71.0909 85.1833 71.0562 85.2427 71.0368C85.2985 71.0194 85.3229 71.0273 85.362 71.0546L85.5246 71.1682L85.7561 71.0111L85.4016 70.7631C85.1991 70.8091 85.0064 70.8901 84.8636 70.9757Z" fill="white"/>
<path d="M87.4983 70.9886C87.1515 71.1966 86.8053 71.0409 86.5677 70.8747C86.3209 70.7021 86.1738 70.4675 86.4826 70.2824C86.8132 70.0841 87.178 70.2551 87.3903 70.4036C87.6405 70.5786 87.8037 70.8055 87.4983 70.9886ZM86.2833 70.1241C85.9456 70.3266 85.7446 70.6908 86.2771 71.0633C86.7518 71.3956 87.2633 71.4014 87.6912 71.1448C88.1121 70.8923 88.1604 70.5529 87.684 70.2197C87.1549 69.849 86.641 69.9096 86.2833 70.1241Z" fill="white"/>
<path d="M88.9852 68.5358L88.5083 68.8218L89.0367 69.7267L89.0314 69.7299L87.6831 69.3167L87.199 69.6068L87.3754 69.7304L87.5296 69.648L88.4328 70.3646C88.4639 70.3887 88.4621 70.4181 88.4294 70.4398L88.349 70.4963L88.5177 70.6143L89.0868 70.2732L88.9104 70.1497L88.747 70.2394L88.0227 69.6691L88.0263 69.667L89.2159 70.0231L89.4435 69.8866L88.9848 69.0821L88.9884 69.08L89.7694 69.5654C89.8117 69.5927 89.7972 69.6177 89.7608 69.6415L89.6804 69.698L89.8491 69.816L90.4289 69.4682L90.2525 69.3447L90.098 69.4291L89.0825 68.7982C89.0246 68.76 89.0408 68.7338 89.081 68.7056L89.1541 68.6535L88.9852 68.5358Z" fill="white"/>
<path d="M90.2909 67.7523L89.1873 68.4141L89.3637 68.5376L89.5072 68.4597L90.4755 69.1374C90.5161 69.1658 90.4997 69.1918 90.4646 69.2191L90.3914 69.2711L90.5602 69.3891L91.7034 68.7035L91.3332 68.4444L91.0719 68.5807L91.1765 68.6538C91.2186 68.6834 91.2383 68.704 91.1767 68.7408L90.7883 68.9736L90.3979 68.7003L90.9541 68.3666L90.7432 68.219L90.187 68.5527L89.831 68.3035L90.1868 68.0901C90.2518 68.0513 90.2822 68.0654 90.3213 68.0927L90.4041 68.1505L90.6357 67.9934L90.2909 67.7523Z" fill="white"/>
</g>
</svg>
