<svg width="88" height="81" viewBox="0 0 88 81" fill="none" xmlns="http://www.w3.org/2000/svg">
<path opacity="0.5" d="M77.9 73.1262C77.9 77.0989 60.462 80.3176 38.95 80.3176C17.438 80.3176 0 77.0979 0 73.1262C0 69.1566 17.439 65.9379 38.95 65.9379C60.462 65.9369 77.9 69.1566 77.9 73.1262Z" fill="#BABCBE"/>
<path d="M15.905 26.4547L21.748 32.7802L16.848 28.3322L11.007 22.0037L15.905 26.4547Z" fill="#62AC64"/>
<path d="M34.815 1.64893L40.657 7.97546L44.388 13.6618L38.547 7.33331L34.815 1.64893Z" fill="#62AC64"/>
<path d="M14.681 45.2895L20.523 51.617L14.097 50.9808L8.25598 44.6533L14.681 45.2895Z" fill="#4B843D"/>
<path d="M57.401 2.34497L63.241 8.6755L62.892 15.5223L57.051 9.19479L57.401 2.34497Z" fill="#62AC64"/>
<path d="M61.805 20.7184L69.172 28.6997C66.142 25.4181 60.628 21.3266 55.924 20.256C43.348 17.3978 30.665 25.2793 27.574 37.8714C25.643 45.7419 29.408 55.2461 34.455 60.7108L27.088 52.7345C22.037 47.2618 19.763 39.4263 21.692 31.5539C24.783 18.9627 37.464 11.0793 50.042 13.9394C54.745 15.007 58.772 17.4398 61.805 20.7184Z" fill="#4B843D"/>
<path d="M24.964 61.1443L30.806 67.4738L25.263 70.7115L19.423 64.3839L24.964 61.1443Z" fill="#4B843D"/>
<path d="M69.356 9.49744L75.199 15.826L80.926 22.3892L75.086 16.0616L69.356 9.49744Z" fill="#4B843D"/>
<path d="M75.086 16.0616L80.926 22.3892L76.675 27.779L70.831 21.4524L75.086 16.0616Z" fill="#62AC64"/>
<path d="M31.725 65.2168L37.569 71.5434C35.09 70.4768 32.852 69.0976 30.806 67.4748L24.964 61.1443C27.009 62.7731 29.247 64.1443 31.725 65.2168Z" fill="#44792D"/>
<path d="M70.831 21.4524L76.675 27.7789C77.986 30.001 79.002 32.3858 79.717 34.8904L73.875 28.5649C73.16 26.0542 72.144 23.6704 70.831 21.4524Z" fill="#44792D"/>
<path d="M39.946 73.4827L45.789 79.8132L37.241 77.8678L31.399 71.5403L39.946 73.4827Z" fill="#4B843D"/>
<path d="M42.589 67.7035L48.431 74.035L45.789 79.8133L39.946 73.4827L42.589 67.7035Z" fill="#62AC64"/>
<path d="M81.209 37.9603L87.05 44.2869L80.623 46.1434L74.783 39.8168L81.209 37.9603Z" fill="#4B843D"/>
<path d="M80.543 29.2319L86.384 35.5635L87.05 44.2868L81.209 37.9602L80.543 29.2319Z" fill="#62AC64"/>
<path d="M50.53 66.9764L56.371 73.304C53.784 73.8772 51.125 74.1398 48.431 74.035L42.589 67.7035C45.284 67.8113 47.942 67.5527 50.53 66.9764Z" fill="#44792D"/>
<path d="M80.623 46.1433L74.783 39.8168C74.634 41.1969 74.423 42.5651 74.087 43.9462C73.781 45.1846 73.415 46.347 72.979 47.5145L78.819 53.842C79.255 52.6755 79.625 51.5111 79.929 50.2728C80.266 48.8926 80.476 47.5245 80.623 46.1433Z" fill="#44792D"/>
<path d="M67.122 57.2065L72.964 63.536C71.13 65.5903 69.046 67.3789 66.756 68.8829L60.917 62.5574C63.206 61.0504 65.286 59.2628 67.122 57.2065Z" fill="#44792D"/>
<path d="M62.142 68.814L67.983 75.1415L59.807 78.5599L53.964 72.2364L62.142 68.814Z" fill="#4B843D"/>
<path d="M60.917 62.5574L66.756 68.8829L67.983 75.1415L62.142 68.814L60.917 62.5574Z" fill="#62AC64"/>
<path d="M77.799 51.8647L83.639 58.1903L78.983 65.7282L73.142 59.4026L77.799 51.8647Z" fill="#62AC64"/>
<path d="M73.142 59.4026L78.983 65.7281L72.964 63.536L67.122 57.2065L73.142 59.4026Z" fill="#4B843D"/>
<path d="M74.087 43.9463C73.781 45.1846 73.415 46.347 72.979 47.5145L77.799 51.8637L73.143 59.4025L67.122 57.2065C65.286 59.2628 63.206 61.0504 60.917 62.5563L62.143 68.8139L53.964 72.2364L50.53 66.9764C47.942 67.5516 45.284 67.8113 42.589 67.7034L39.946 73.4827L31.399 71.5403L31.724 65.2168C29.246 64.1442 27.008 62.774 24.963 61.1442L19.422 64.3839L13.716 57.8067L17.726 52.7205C16.396 50.4106 15.342 47.9119 14.68 45.2895L8.255 44.6533L7.59601 35.908L13.951 34.0765C14.097 32.8661 14.292 31.6437 14.593 30.4254C14.931 29.0442 15.402 27.736 15.904 26.4547L11.006 22.0036L15.655 14.4857L21.953 16.7607C23.734 14.8233 25.755 13.1285 27.959 11.7064L26.66 5.05535L34.814 1.64791L38.545 7.3323C40.967 6.82498 43.453 6.5893 45.981 6.67618L48.851 0.402588L57.4 2.34298L57.049 9.19381C59.351 10.2015 61.465 11.4847 63.398 12.9787L69.355 9.4964L75.084 16.0606L70.829 21.4514C72.142 23.6704 73.158 26.0542 73.873 28.5639L80.541 29.232L81.207 37.9603L74.781 39.8168C74.634 41.1969 74.423 42.5651 74.087 43.9463ZM38.858 59.5134C51.41 62.3686 64.116 54.4921 67.206 41.897C70.296 29.3059 62.592 16.7906 50.041 13.9394C37.464 11.0783 24.782 18.9627 21.691 31.5539C18.603 44.145 26.283 56.6542 38.858 59.5134Z" fill="#7BD48B"/>
<path d="M50.091 15.5603L53.927 19.6368L52.863 23.9451L49.024 19.8665L50.091 15.5603Z" fill="#D27B22"/>
<path d="M55.703 23.0912L59.543 27.1697L56.77 32.3748L52.931 28.2962L55.703 23.0912Z" fill="#D27B22"/>
<path d="M46.224 33.4363L42.384 29.3568C41.523 28.439 41.229 27.65 41.438 26.8162C41.774 25.436 43.134 24.3075 46.303 25.0316C49.83 25.8355 51.791 27.4743 52.931 28.2952L56.771 32.3737C55.632 31.5528 53.668 29.91 50.144 29.1061C46.972 28.3821 45.611 29.5126 45.272 30.8887C45.065 31.7266 45.361 32.5165 46.224 33.4363Z" fill="#AB5F16"/>
<path d="M43.467 39.2625L47.309 43.3431C46.612 42.603 45.578 41.8351 44.185 40.9782C42.432 39.8927 40.924 38.7722 39.772 37.5488L35.93 33.4723C37.083 34.6937 38.598 35.8161 40.346 36.8997C41.739 37.7575 42.774 38.5275 43.467 39.2625Z" fill="#AB5F16"/>
<path d="M36.381 49.6866L40.22 53.7621C36.978 52.8603 34.021 51.2545 32.432 49.7685L28.593 45.6899C30.183 47.1779 33.14 48.7818 36.381 49.6866Z" fill="#AB5F16"/>
<path d="M41.244 50.4246L45.083 54.5031L43.852 59.5014L40.014 55.4229L41.244 50.4246Z" fill="#D27B22"/>
<path d="M40.014 55.4229L43.852 59.5015L39.072 58.4109L35.232 54.3324L40.014 55.4229Z" fill="#AB5F16"/>
<path d="M50.079 35.3867L53.917 39.4633C56.163 41.8501 56.764 44.3577 56 47.4396C54.932 51.7888 50.947 54.8127 45.083 54.5031L41.244 50.4246C47.106 50.7342 51.093 47.7082 52.163 43.365C52.922 40.2862 52.321 37.7715 50.079 35.3867Z" fill="#AB5F16"/>
<path d="M50.091 15.5603L49.025 19.8665C52.256 20.7553 54.291 21.9437 55.704 23.0912L52.931 28.2962C51.791 27.4753 49.83 25.8365 46.303 25.0326C43.134 24.3086 41.774 25.4371 41.438 26.8172C41.041 28.4231 42.496 29.8522 46.269 32.3588C51.568 35.7303 53.247 38.9639 52.164 43.3651C51.094 47.7092 47.107 50.7352 41.245 50.4246L40.015 55.4229L35.234 54.3324L36.382 49.6866C33.141 48.7818 30.185 47.1779 28.594 45.6899L31.466 40.3012C33.239 41.885 35.875 43.5698 39.051 44.2928C41.836 44.928 44.004 44.2838 44.481 42.3374C44.942 40.4699 43.663 38.942 40.347 36.9007C35.561 33.9447 32.603 30.692 33.766 25.9434C34.827 21.6332 38.68 18.9458 44.163 19.1175L45.309 14.4688L50.091 15.5603Z" fill="#E9A733"/>
</svg>
