<svg width="141" height="120" viewBox="0 0 141 120" fill="none" xmlns="http://www.w3.org/2000/svg">
<path d="M72.5371 89.9502L74.2767 105.423C74.2767 105.423 121.964 77.0044 129.614 69.6256L128.582 56.1489C128.582 56.1489 116.308 71.7656 72.5371 89.9502Z" fill="#2A493D"/>
<path opacity="0.5" d="M92.4416 84.6606C92.4416 84.6606 120.296 69.7147 128.812 59.0704L129.039 62.0124C129.039 62.0124 119.043 72.7551 92.4416 84.6606Z" fill="#2A493D"/>
<path opacity="0.5" d="M73.5092 98.6687C73.5092 98.6687 96.2352 88.6871 105.929 82.9814C105.929 82.9814 77.3662 99.5516 73.8558 101.755L73.5092 98.6687Z" fill="#2A493D"/>
<path d="M72.5258 89.966L74.2644 105.432L45.3272 83.3921L40.4647 68.8116L72.5258 89.966Z" fill="#407062"/>
<g opacity="0.5">
<path d="M41.2142 71.0611C41.2142 71.0611 66.2574 89.7426 69.0536 91.5652C69.0536 91.5652 46.0214 77.4974 42.2985 74.3151L41.2142 71.0611Z" fill="#407062"/>
<path d="M43.4686 77.834C43.4686 77.834 56.0992 87.3998 60.6979 90.5229C60.6979 90.5229 47.8345 83.1433 44.4028 80.6343L43.4686 77.834Z" fill="#407062"/>
</g>
<path d="M128.59 56.1638L96.4589 40.5836C96.4589 40.5836 55.9665 67.5206 40.4697 68.8034L72.5441 89.9651C72.5441 89.9651 113.163 73.8748 128.59 56.1638Z" fill="#3E6E53"/>
<path d="M37.9626 63.3041C37.1855 63.5122 72.545 89.9654 72.545 89.9654C72.545 89.9654 109.414 76.7482 126.421 49.9988C126.421 49.9988 109.08 41.9927 100.693 35.8692C100.693 35.8692 75.736 53.1923 37.9626 63.3041Z" fill="#5A9F8D"/>
<path d="M47.199 66.3303C46.5356 66.4954 74.0173 83.693 74.0173 83.693C74.0173 83.693 104.106 71.57 119.046 51.9041C119.046 51.9041 108.714 46.1691 101.743 41.9192C101.743 41.9192 79.3705 58.2552 47.199 66.3303Z" fill="#D4E2A7"/>
<path d="M102.266 58.5627C103.749 62.6945 98.1439 68.4731 89.7534 71.4677C81.3632 74.4634 73.3621 73.5395 71.8795 69.4077C70.4003 65.2747 76.0047 59.4977 84.3929 56.5039C92.7842 53.5078 100.787 54.4297 102.266 58.5627Z" fill="#3D6C64"/>
<path d="M63.2114 54.9445C63.2114 54.9445 72.3525 51.2432 74.8151 49.995L110.384 70.6668C110.384 70.6668 102.168 75.6812 98.97 77.4498L63.2114 54.9445Z" fill="#B2B936"/>
<path d="M98.9645 77.4376L98.9034 90.397L109.682 83.5905L110.38 70.6541L98.9645 77.4376Z" fill="#D7DE4F"/>
<path opacity="0.5" d="M110.901 47.2046C112.412 49.6472 99.34 60.4458 81.7035 71.322C64.0663 82.1998 48.5436 89.0343 47.0342 86.5934C45.5239 84.1504 58.5965 73.3529 76.2341 62.4762C93.8706 51.6 109.391 44.7627 110.901 47.2046Z" fill="#BABCBE"/>
<path d="M50.7591 79.5376L56.2232 94.1189C56.2232 94.1189 95.5263 54.9333 101.143 45.9126L96.8525 33.0948C96.8525 33.0948 88.7633 51.2317 50.7591 79.5376Z" fill="#2A493D"/>
<path opacity="0.5" d="M68.7678 69.5561C68.7678 69.5561 92.129 48.2722 97.7885 35.8742L98.7261 38.6719C98.7261 38.6719 91.6558 51.526 68.7678 69.5561Z" fill="#2A493D"/>
<path opacity="0.5" d="M53.8307 87.7537C53.8307 87.7537 73.4309 72.5346 81.4379 64.6388C81.4379 64.6388 57.7862 87.6694 54.9202 90.6617L53.8307 87.7537Z" fill="#2A493D"/>
<path d="M50.7502 79.5497L56.2122 94.1262L22.7679 79.8056L14.4925 66.8494L50.7502 79.5497Z" fill="#407062"/>
<g opacity="0.5">
<path d="M15.7684 68.849C15.7684 68.849 44.615 80.8615 47.7716 81.9475C47.7716 81.9475 22.0015 73.9194 17.6143 71.7406L15.7684 68.849Z" fill="#407062"/>
<path d="M19.6086 74.8673C19.6086 74.8673 34.1926 81.0653 39.4146 82.9731C39.4146 82.9731 25.1387 78.9522 21.1981 77.3555L19.6086 74.8673Z" fill="#407062"/>
</g>
<path d="M96.8585 33.1068L61.8976 25.8287C61.8976 25.8287 29.2107 61.8225 14.4971 66.8439L50.7662 79.5487C50.7662 79.5487 86.2241 54.0435 96.8585 33.1068Z" fill="#3E6E53"/>
<path d="M10.7229 62.1216C10.0201 62.5128 50.7669 79.5489 50.7669 79.5489C50.7669 79.5489 83.2903 57.744 93.2495 27.6565C93.2495 27.6565 74.4798 24.1187 64.8522 20.2242C64.8522 20.2242 44.8817 43.1078 10.7229 62.1216Z" fill="#5A9F8D"/>
<path d="M20.4182 62.8052C19.8153 63.127 50.663 73.1067 50.663 73.1067C50.663 73.1067 76.879 54.0157 86.5642 31.302C86.5642 31.302 75.1452 28.2585 67.3475 25.8362C67.3475 25.8362 49.6424 47.1322 20.4182 62.8052Z" fill="#D4E2A7"/>
<path d="M71.9193 41.8497C74.3659 45.4954 70.3418 52.4658 62.9369 57.4152C55.5327 62.3656 47.5486 63.4199 45.102 59.7741C42.6585 56.1264 46.6822 49.1576 54.0851 44.2095C61.4903 39.2585 69.4758 38.2019 71.9193 41.8497Z" fill="#3D6C64"/>
<path d="M33.1649 47.8613C33.1649 47.8613 41.1255 42.0428 43.2087 40.2319L82.7467 51.6087C82.7467 51.6087 76.0041 58.475 73.3343 60.9702L33.1649 47.8613Z" fill="#B2B936"/>
<path d="M73.3303 60.961L76.4348 73.5448L85.2249 64.3155L82.7438 51.5988L73.3303 60.961Z" fill="#D7DE4F"/>
</svg>
