<svg width="192" height="192" viewBox="0 0 192 192" fill="none" xmlns="http://www.w3.org/2000/svg">
<g clip-path="url(#clip0_134_25962)">
<path fill-rule="evenodd" clip-rule="evenodd" d="M0 95.8516C0 43.0294 43.0294 0 95.8516 0C148.971 0 192 43.0294 192 95.8516C192 148.971 148.971 192 95.8516 192C43.0294 192 0 148.971 0 95.8516Z" fill="#005596"/>
<path fill-rule="evenodd" clip-rule="evenodd" d="M114.308 90.9458C102.513 94.1944 90.718 95.0804 83.9359 95.0804V89.4692C107.231 89.4692 131.41 80.0187 131.41 58.4598C131.41 47.828 121.385 37.4916 111.064 37.4916H77.7436V144.991C77.7436 149.716 81.5769 153.555 86 153.555H112.538C124.628 153.555 138.487 140.856 138.487 125.204C138.487 109.847 119.91 93.0131 114.308 90.9458ZM40 155.327H47.0769C52.6795 155.327 57.3974 150.897 57.3974 144.991V49.0093C57.3974 48.714 57.3974 48.1234 57.3974 47.828C57.3974 42.2168 52.6795 37.4916 47.0769 37.4916H46.1923H40V33.0617H119.615C137.013 33.0617 145.859 43.9888 145.859 58.4598C145.859 72.9308 138.487 81.7907 125.808 87.1065C131.115 88.8785 155 104.826 155 125.204C155 149.125 129.346 160.052 116.372 160.052H40V155.327ZM94.2564 84.4486V41.9215H109.295V81.4953C104.577 83.2673 98.0897 84.1533 94.2564 84.4486ZM94.2564 150.307V98.6243C99.2692 98.329 103.987 97.7383 109.295 96.8523V150.307H94.2564ZM94.2564 164.187V162.71H109.295V164.187C109.295 167.731 111.654 170.684 114.897 171.57H122.859V176H80.6923V171.57H88.6538C91.8974 170.684 94.2564 167.731 94.2564 164.187ZM116.372 22.4299C112.538 22.4299 109.295 25.6785 109.295 29.8131H94.2564C94.2564 25.6785 91.0128 22.4299 86.8846 22.4299H80.6923V18H122.859V22.4299H116.372Z" fill="white"/>
</g>
<defs>
<clipPath id="clip0_134_25962">
<rect width="192" height="192" fill="white"/>
</clipPath>
</defs>
</svg>
